<svg width="1920" height="502" viewBox="0 0 1920 554" fill="none" xmlns="http://www.w3.org/2000/svg">
    <g filter="url(#filter0_d_3233_516)">
        <rect y="26" width="1920" height="502" fill="white"/>
    </g>
    <path d="M535.301 137V170H529.757V138.76L531.561 138.848L516.205 170H510.001L494.645 138.892L496.449 138.804V170H490.905V137H499.793L514.577 167.492H511.673L526.413 137H535.301ZM569.749 145.096H575.469V170H569.749V145.096ZM541.765 170V145.096H547.485V168.416L545.461 165.776H556.109C557.663 165.776 558.881 165.395 559.761 164.632C560.641 163.84 561.081 162.769 561.081 161.42C561.081 160.041 560.641 158.971 559.761 158.208C558.881 157.416 557.663 157.02 556.109 157.02H545.637V152.928H556.857C558.881 152.928 560.641 153.295 562.137 154.028C563.633 154.732 564.791 155.729 565.613 157.02C566.463 158.281 566.889 159.763 566.889 161.464C566.889 163.165 566.463 164.661 565.613 165.952C564.791 167.243 563.633 168.24 562.137 168.944C560.641 169.648 558.895 170 556.901 170H541.765ZM620.698 160.188C620.405 162.241 619.598 164.06 618.278 165.644C616.958 167.199 615.271 168.416 613.218 169.296C611.165 170.176 608.877 170.616 606.354 170.616C603.479 170.616 600.942 170.073 598.742 168.988C596.571 167.873 594.87 166.333 593.638 164.368C592.406 162.403 591.79 160.129 591.79 157.548C591.79 154.967 592.406 152.693 593.638 150.728C594.87 148.763 596.571 147.237 598.742 146.152C600.942 145.037 603.479 144.48 606.354 144.48C608.877 144.48 611.165 144.92 613.218 145.8C615.271 146.68 616.958 147.912 618.278 149.496C619.598 151.051 620.405 152.869 620.698 154.952H614.934C614.523 153.075 613.541 151.608 611.986 150.552C610.431 149.496 608.554 148.968 606.354 148.968C604.594 148.968 603.054 149.32 601.734 150.024C600.414 150.699 599.387 151.681 598.654 152.972C597.95 154.233 597.598 155.759 597.598 157.548C597.598 159.308 597.95 160.833 598.654 162.124C599.387 163.415 600.414 164.412 601.734 165.116C603.054 165.791 604.594 166.128 606.354 166.128C608.583 166.128 610.475 165.585 612.03 164.5C613.585 163.415 614.553 161.977 614.934 160.188H620.698ZM638.81 170.616C635.789 170.616 633.134 170.073 630.846 168.988C628.587 167.873 626.813 166.333 625.522 164.368C624.261 162.403 623.63 160.129 623.63 157.548C623.63 154.937 624.261 152.664 625.522 150.728C626.813 148.763 628.587 147.237 630.846 146.152C633.134 145.037 635.789 144.48 638.81 144.48C641.831 144.48 644.471 145.037 646.73 146.152C649.018 147.237 650.793 148.763 652.054 150.728C653.345 152.664 653.99 154.937 653.99 157.548C653.99 160.129 653.345 162.403 652.054 164.368C650.793 166.333 649.018 167.873 646.73 168.988C644.471 170.073 641.831 170.616 638.81 170.616ZM638.81 166.128C640.746 166.128 642.403 165.776 643.782 165.072C645.19 164.368 646.275 163.385 647.038 162.124C647.801 160.833 648.182 159.308 648.182 157.548C648.182 155.788 647.801 154.277 647.038 153.016C646.275 151.725 645.19 150.728 643.782 150.024C642.403 149.32 640.746 148.968 638.81 148.968C636.903 148.968 635.246 149.32 633.838 150.024C632.43 150.728 631.345 151.725 630.582 153.016C629.819 154.277 629.438 155.788 629.438 157.548C629.438 159.308 629.819 160.833 630.582 162.124C631.345 163.385 632.43 164.368 633.838 165.072C635.246 165.776 636.903 166.128 638.81 166.128ZM670.256 170.616C667.616 170.616 665.298 170.264 663.304 169.56C661.338 168.856 659.784 167.844 658.64 166.524C657.525 165.204 656.909 163.635 656.792 161.816H662.336C662.57 163.253 663.362 164.353 664.712 165.116C666.09 165.849 667.938 166.216 670.256 166.216C672.485 166.216 674.23 165.923 675.492 165.336C676.753 164.72 677.384 163.781 677.384 162.52C677.384 161.493 676.856 160.731 675.8 160.232C674.773 159.733 673.13 159.484 670.872 159.484H665.944V155.524H670.74C672.764 155.524 674.26 155.216 675.228 154.6C676.225 153.984 676.724 153.221 676.724 152.312C676.724 151.197 676.137 150.347 674.964 149.76C673.79 149.173 672.25 148.88 670.344 148.88C668.232 148.88 666.516 149.217 665.196 149.892C663.876 150.567 663.098 151.579 662.864 152.928H657.32C657.466 151.344 658.068 149.921 659.124 148.66C660.209 147.369 661.72 146.357 663.656 145.624C665.592 144.861 667.894 144.48 670.564 144.48C672.998 144.48 675.11 144.788 676.9 145.404C678.689 146.02 680.068 146.871 681.036 147.956C682.033 149.012 682.532 150.229 682.532 151.608C682.532 152.723 682.18 153.749 681.476 154.688C680.801 155.627 679.73 156.375 678.264 156.932C676.826 157.489 674.964 157.768 672.676 157.768V157.02C676.02 156.903 678.616 157.357 680.464 158.384C682.312 159.381 683.236 160.877 683.236 162.872C683.236 164.368 682.722 165.703 681.696 166.876C680.698 168.049 679.232 168.973 677.296 169.648C675.36 170.293 673.013 170.616 670.256 170.616ZM719.981 165.6V176.292H715.009V170H690.105V176.292H685.133V165.6H691.557L693.141 165.688H711.313L712.721 165.6H719.981ZM690.677 145.096H715.361V168.328H709.641V146.856L712.281 149.496H693.669L696.133 147.56C696.28 148.851 696.368 150.097 696.397 151.3C696.456 152.473 696.485 153.573 696.485 154.6C696.485 158.883 695.899 162.241 694.725 164.676C693.581 167.111 691.968 168.328 689.885 168.328L687.553 166.348C689.959 164.588 691.161 160.305 691.161 153.5C691.161 152.18 691.117 150.816 691.029 149.408C690.941 147.971 690.824 146.533 690.677 145.096ZM746.797 170L745.829 160.76L746.973 157.548L745.829 154.38L746.797 145.096H752.693L751.373 157.548L752.693 170H746.797ZM748.557 157.548C748 160.159 747.076 162.447 745.785 164.412C744.495 166.377 742.896 167.903 740.989 168.988C739.112 170.073 737.015 170.616 734.697 170.616C732.263 170.616 730.107 170.073 728.229 168.988C726.352 167.873 724.885 166.333 723.829 164.368C722.773 162.403 722.245 160.129 722.245 157.548C722.245 154.937 722.773 152.664 723.829 150.728C724.885 148.763 726.352 147.237 728.229 146.152C730.107 145.037 732.263 144.48 734.697 144.48C737.015 144.48 739.112 145.023 740.989 146.108C742.896 147.193 744.495 148.719 745.785 150.684C747.105 152.62 748.029 154.908 748.557 157.548ZM728.053 157.548C728.053 159.22 728.391 160.701 729.065 161.992C729.769 163.253 730.723 164.251 731.925 164.984C733.128 165.688 734.507 166.04 736.061 166.04C737.645 166.04 739.112 165.688 740.461 164.984C741.811 164.251 742.999 163.253 744.025 161.992C745.081 160.701 745.917 159.22 746.533 157.548C745.917 155.876 745.081 154.409 744.025 153.148C742.999 151.857 741.811 150.86 740.461 150.156C739.112 149.423 737.645 149.056 736.061 149.056C734.507 149.056 733.128 149.423 731.925 150.156C730.723 150.86 729.769 151.857 729.065 153.148C728.391 154.409 728.053 155.876 728.053 157.548ZM762.554 145.096H787.062V170H781.342V146.856L783.982 149.496H765.414L767.878 147.472C768.025 149.291 768.142 151.021 768.23 152.664C768.347 154.277 768.406 155.729 768.406 157.02C768.406 161.713 767.746 165.131 766.426 167.272C765.106 169.413 762.979 170.484 760.046 170.484C759.254 170.484 758.491 170.396 757.758 170.22C757.025 170.044 756.321 169.765 755.646 169.384V165.116C756.174 165.321 756.687 165.483 757.186 165.6C757.714 165.717 758.198 165.776 758.638 165.776C760.251 165.776 761.41 165.028 762.114 163.532C762.847 162.036 763.214 159.601 763.214 156.228C763.214 154.761 763.155 153.089 763.038 151.212C762.95 149.335 762.789 147.296 762.554 145.096ZM793.132 170V145.096H798.764V167.14L797.048 166.744L814.076 145.096H821.468V170H815.836V147.648L817.596 148.088L800.348 170H793.132ZM843.803 177.876C842.337 177.876 841.002 177.685 839.799 177.304C838.626 176.952 837.526 176.453 836.499 175.808V171.452C837.614 172.156 838.67 172.669 839.667 172.992C840.694 173.315 841.838 173.476 843.099 173.476C844.302 173.476 845.373 173.197 846.311 172.64C847.25 172.112 848.027 171.173 848.643 169.824L859.863 145.096H865.935L853.043 171.76C852.339 173.227 851.503 174.4 850.535 175.28C849.597 176.189 848.555 176.849 847.411 177.26C846.297 177.671 845.094 177.876 843.803 177.876ZM846.663 169.208L835.223 145.096H841.515L852.339 169.208H846.663ZM869.272 145.096H874.948V170H869.272V145.096ZM890.436 145.096H896.112V170H890.436V145.096ZM872.484 155.172H892.812V159.572H872.484V155.172ZM902.186 170V145.096H907.818V167.14L906.102 166.744L923.13 145.096H930.522V170H924.89V147.648L926.65 148.088L909.402 170H902.186ZM936.604 170V145.096H942.324V165.16L940.608 164.544L956.492 145.096H963.004L941.884 170H936.604ZM957.108 170L949.364 157.68L953.368 154.072L963.796 170H957.108ZM988.797 170L987.829 160.76L988.973 157.548L987.829 154.38L988.797 145.096H994.693L993.373 157.548L994.693 170H988.797ZM990.557 157.548C990 160.159 989.076 162.447 987.785 164.412C986.495 166.377 984.896 167.903 982.989 168.988C981.112 170.073 979.015 170.616 976.697 170.616C974.263 170.616 972.107 170.073 970.229 168.988C968.352 167.873 966.885 166.333 965.829 164.368C964.773 162.403 964.245 160.129 964.245 157.548C964.245 154.937 964.773 152.664 965.829 150.728C966.885 148.763 968.352 147.237 970.229 146.152C972.107 145.037 974.263 144.48 976.697 144.48C979.015 144.48 981.112 145.023 982.989 146.108C984.896 147.193 986.495 148.719 987.785 150.684C989.105 152.62 990.029 154.908 990.557 157.548ZM970.053 157.548C970.053 159.22 970.391 160.701 971.065 161.992C971.769 163.253 972.723 164.251 973.925 164.984C975.128 165.688 976.507 166.04 978.061 166.04C979.645 166.04 981.112 165.688 982.461 164.984C983.811 164.251 984.999 163.253 986.025 161.992C987.081 160.701 987.917 159.22 988.533 157.548C987.917 155.876 987.081 154.409 986.025 153.148C984.999 151.857 983.811 150.86 982.461 150.156C981.112 149.423 979.645 149.056 978.061 149.056C976.507 149.056 975.128 149.423 973.925 150.156C972.723 150.86 971.769 151.857 971.065 153.148C970.391 154.409 970.053 155.876 970.053 157.548ZM1004.55 145.096H1029.06V170H1023.34V146.856L1025.98 149.496H1007.41L1009.88 147.472C1010.02 149.291 1010.14 151.021 1010.23 152.664C1010.35 154.277 1010.41 155.729 1010.41 157.02C1010.41 161.713 1009.75 165.131 1008.43 167.272C1007.11 169.413 1004.98 170.484 1002.05 170.484C1001.25 170.484 1000.49 170.396 999.758 170.22C999.025 170.044 998.321 169.765 997.646 169.384V165.116C998.174 165.321 998.687 165.483 999.186 165.6C999.714 165.717 1000.2 165.776 1000.64 165.776C1002.25 165.776 1003.41 165.028 1004.11 163.532C1004.85 162.036 1005.21 159.601 1005.21 156.228C1005.21 154.761 1005.16 153.089 1005.04 151.212C1004.95 149.335 1004.79 147.296 1004.55 145.096ZM1035.13 170V145.096H1040.85V168.416L1038.83 165.776H1049.48C1051.03 165.776 1052.25 165.395 1053.13 164.632C1054.01 163.84 1054.45 162.769 1054.45 161.42C1054.45 160.041 1054.01 158.971 1053.13 158.208C1052.25 157.416 1051.03 157.02 1049.48 157.02H1039V152.928H1050.22C1052.25 152.928 1054.01 153.295 1055.5 154.028C1057 154.732 1058.16 155.729 1058.98 157.02C1059.83 158.281 1060.26 159.763 1060.26 161.464C1060.26 163.165 1059.83 164.661 1058.98 165.952C1058.16 167.243 1057 168.24 1055.5 168.944C1054.01 169.648 1052.26 170 1050.27 170H1035.13ZM1064.26 145.096H1069.94V170H1064.26V145.096ZM1085.43 145.096H1091.1V170H1085.43V145.096ZM1067.48 155.172H1087.8V159.572H1067.48V155.172ZM1125.16 145.096H1130.88V170H1125.16V145.096ZM1097.18 170V145.096H1102.9V168.416L1100.87 165.776H1111.52C1113.08 165.776 1114.29 165.395 1115.17 164.632C1116.05 163.84 1116.49 162.769 1116.49 161.42C1116.49 160.041 1116.05 158.971 1115.17 158.208C1114.29 157.416 1113.08 157.02 1111.52 157.02H1101.05V152.928H1112.27C1114.29 152.928 1116.05 153.295 1117.55 154.028C1119.05 154.732 1120.21 155.729 1121.03 157.02C1121.88 158.281 1122.3 159.763 1122.3 161.464C1122.3 163.165 1121.88 164.661 1121.03 165.952C1120.21 167.243 1119.05 168.24 1117.55 168.944C1116.05 169.648 1114.31 170 1112.31 170H1097.18ZM1136.97 170V145.096H1142.6V167.14L1140.88 166.744L1157.91 145.096H1165.3V170H1159.67V147.648L1161.43 148.088L1144.18 170H1136.97ZM1151 142.588C1148.36 142.588 1146.24 141.928 1144.62 140.608C1143.04 139.288 1142.06 137.381 1141.68 134.888H1146.3C1146.53 136.237 1147.06 137.279 1147.88 138.012C1148.7 138.716 1149.74 139.068 1151 139.068C1152.26 139.068 1153.31 138.716 1154.13 138.012C1154.95 137.279 1155.48 136.237 1155.71 134.888H1160.29C1159.94 137.381 1158.95 139.288 1157.34 140.608C1155.73 141.928 1153.61 142.588 1151 142.588ZM1209.69 145.096V170H1203.97V146.9L1206.61 149.496H1186.11L1188.75 146.9V170H1183.03V145.096H1209.69ZM1215.77 145.096H1221.49V153.764L1221.23 154.644V159.66L1221.49 161.2V177.26H1215.77V145.096ZM1219.29 157.548C1219.85 154.908 1220.77 152.62 1222.06 150.684C1223.35 148.719 1224.94 147.193 1226.82 146.108C1228.72 145.023 1230.83 144.48 1233.15 144.48C1235.59 144.48 1237.74 145.037 1239.62 146.152C1241.5 147.237 1242.96 148.763 1244.02 150.728C1245.08 152.664 1245.6 154.937 1245.6 157.548C1245.6 160.129 1245.08 162.403 1244.02 164.368C1242.96 166.333 1241.5 167.873 1239.62 168.988C1237.74 170.073 1235.59 170.616 1233.15 170.616C1230.83 170.616 1228.74 170.073 1226.86 168.988C1224.98 167.903 1223.38 166.377 1222.06 164.412C1220.77 162.447 1219.85 160.159 1219.29 157.548ZM1239.8 157.548C1239.8 155.876 1239.44 154.409 1238.74 153.148C1238.07 151.857 1237.13 150.86 1235.92 150.156C1234.72 149.423 1233.34 149.056 1231.79 149.056C1230.23 149.056 1228.77 149.423 1227.39 150.156C1226.04 150.86 1224.85 151.857 1223.82 153.148C1222.8 154.409 1221.96 155.876 1221.32 157.548C1221.96 159.22 1222.8 160.701 1223.82 161.992C1224.85 163.253 1226.04 164.251 1227.39 164.984C1228.77 165.688 1230.23 166.04 1231.79 166.04C1233.34 166.04 1234.72 165.688 1235.92 164.984C1237.13 164.251 1238.07 163.253 1238.74 161.992C1239.44 160.701 1239.8 159.22 1239.8 157.548ZM1264.13 170.616C1261.11 170.616 1258.46 170.073 1256.17 168.988C1253.91 167.873 1252.14 166.333 1250.85 164.368C1249.58 162.403 1248.95 160.129 1248.95 157.548C1248.95 154.937 1249.58 152.664 1250.85 150.728C1252.14 148.763 1253.91 147.237 1256.17 146.152C1258.46 145.037 1261.11 144.48 1264.13 144.48C1267.16 144.48 1269.8 145.037 1272.05 146.152C1274.34 147.237 1276.12 148.763 1277.38 150.728C1278.67 152.664 1279.31 154.937 1279.31 157.548C1279.31 160.129 1278.67 162.403 1277.38 164.368C1276.12 166.333 1274.34 167.873 1272.05 168.988C1269.8 170.073 1267.16 170.616 1264.13 170.616ZM1264.13 166.128C1266.07 166.128 1267.73 165.776 1269.11 165.072C1270.51 164.368 1271.6 163.385 1272.36 162.124C1273.12 160.833 1273.51 159.308 1273.51 157.548C1273.51 155.788 1273.12 154.277 1272.36 153.016C1271.6 151.725 1270.51 150.728 1269.11 150.024C1267.73 149.32 1266.07 148.968 1264.13 148.968C1262.23 148.968 1260.57 149.32 1259.16 150.024C1257.75 150.728 1256.67 151.725 1255.91 153.016C1255.14 154.277 1254.76 155.788 1254.76 157.548C1254.76 159.308 1255.14 160.833 1255.91 162.124C1256.67 163.385 1257.75 164.368 1259.16 165.072C1260.57 165.776 1262.23 166.128 1264.13 166.128ZM1315.27 165.6V176.292H1310.3V170H1285.39V176.292H1280.42V165.6H1286.85L1288.43 165.688H1306.6L1308.01 165.6H1315.27ZM1285.97 145.096H1310.65V168.328H1304.93V146.856L1307.57 149.496H1288.96L1291.42 147.56C1291.57 148.851 1291.66 150.097 1291.69 151.3C1291.75 152.473 1291.77 153.573 1291.77 154.6C1291.77 158.883 1291.19 162.241 1290.01 164.676C1288.87 167.111 1287.26 168.328 1285.17 168.328L1282.84 166.348C1285.25 164.588 1286.45 160.305 1286.45 153.5C1286.45 152.18 1286.41 150.816 1286.32 149.408C1286.23 147.971 1286.11 146.533 1285.97 145.096ZM1323.94 177.876C1322.47 177.876 1321.13 177.685 1319.93 177.304C1318.76 176.952 1317.66 176.453 1316.63 175.808V171.452C1317.75 172.156 1318.8 172.669 1319.8 172.992C1320.83 173.315 1321.97 173.476 1323.23 173.476C1324.43 173.476 1325.51 173.197 1326.44 172.64C1327.38 172.112 1328.16 171.173 1328.78 169.824L1340 145.096H1346.07L1333.18 171.76C1332.47 173.227 1331.64 174.4 1330.67 175.28C1329.73 176.189 1328.69 176.849 1327.54 177.26C1326.43 177.671 1325.23 177.876 1323.94 177.876ZM1326.8 169.208L1315.36 145.096H1321.65L1332.47 169.208H1326.8ZM1349.41 170V145.096H1355.13V165.16L1353.41 164.544L1369.29 145.096H1375.81L1354.69 170H1349.41ZM1369.91 170L1362.17 157.68L1366.17 154.072L1376.6 170H1369.91ZM1387.32 147.076H1393.04V170H1387.32V147.076ZM1376.98 145.096H1403.38V149.584H1376.98V145.096ZM1401.54 176.072L1405.19 168.196L1405.5 170.264C1404.82 170.264 1404.21 170.103 1403.65 169.78C1403.12 169.457 1402.7 169.032 1402.38 168.504C1402.05 167.947 1401.89 167.345 1401.89 166.7C1401.89 166.025 1402.05 165.424 1402.38 164.896C1402.7 164.368 1403.12 163.957 1403.65 163.664C1404.21 163.341 1404.82 163.18 1405.5 163.18C1406.2 163.18 1406.82 163.341 1407.35 163.664C1407.9 163.987 1408.33 164.427 1408.62 164.984C1408.95 165.541 1409.11 166.172 1409.11 166.876C1409.11 167.551 1408.96 168.269 1408.67 169.032C1408.37 169.765 1407.86 170.733 1407.13 171.936L1404.71 176.072H1401.54ZM628.788 221.876C627.321 221.876 625.986 221.685 624.784 221.304C623.61 220.952 622.51 220.453 621.484 219.808V215.452C622.598 216.156 623.654 216.669 624.652 216.992C625.678 217.315 626.822 217.476 628.084 217.476C629.286 217.476 630.357 217.197 631.296 216.64C632.234 216.112 633.012 215.173 633.628 213.824L644.848 189.096H650.92L638.028 215.76C637.324 217.227 636.488 218.4 635.52 219.28C634.581 220.189 633.54 220.849 632.396 221.26C631.281 221.671 630.078 221.876 628.788 221.876ZM631.648 213.208L620.208 189.096H626.5L637.324 213.208H631.648ZM664.526 214V189.096H670.246V209.16L668.53 208.544L684.414 189.096H690.926L669.806 214H664.526ZM685.03 214L677.286 201.68L681.29 198.072L691.718 214H685.03ZM707.087 214.616C704.066 214.616 701.411 214.073 699.123 212.988C696.865 211.873 695.09 210.333 693.799 208.368C692.538 206.403 691.907 204.129 691.907 201.548C691.907 198.937 692.538 196.664 693.799 194.728C695.09 192.763 696.865 191.237 699.123 190.152C701.411 189.037 704.066 188.48 707.087 188.48C710.109 188.48 712.749 189.037 715.007 190.152C717.295 191.237 719.07 192.763 720.331 194.728C721.622 196.664 722.267 198.937 722.267 201.548C722.267 204.129 721.622 206.403 720.331 208.368C719.07 210.333 717.295 211.873 715.007 212.988C712.749 214.073 710.109 214.616 707.087 214.616ZM707.087 210.128C709.023 210.128 710.681 209.776 712.059 209.072C713.467 208.368 714.553 207.385 715.315 206.124C716.078 204.833 716.459 203.308 716.459 201.548C716.459 199.788 716.078 198.277 715.315 197.016C714.553 195.725 713.467 194.728 712.059 194.024C710.681 193.32 709.023 192.968 707.087 192.968C705.181 192.968 703.523 193.32 702.115 194.024C700.707 194.728 699.622 195.725 698.859 197.016C698.097 198.277 697.715 199.788 697.715 201.548C697.715 203.308 698.097 204.833 698.859 206.124C699.622 207.385 700.707 208.368 702.115 209.072C703.523 209.776 705.181 210.128 707.087 210.128ZM733.719 191.076H739.439V214H733.719V191.076ZM723.379 189.096H749.779V193.584H723.379V189.096ZM766.083 214.616C763.062 214.616 760.407 214.073 758.119 212.988C755.861 211.873 754.086 210.333 752.795 208.368C751.534 206.403 750.903 204.129 750.903 201.548C750.903 198.937 751.534 196.664 752.795 194.728C754.086 192.763 755.861 191.237 758.119 190.152C760.407 189.037 763.062 188.48 766.083 188.48C769.105 188.48 771.745 189.037 774.003 190.152C776.291 191.237 778.066 192.763 779.327 194.728C780.618 196.664 781.263 198.937 781.263 201.548C781.263 204.129 780.618 206.403 779.327 208.368C778.066 210.333 776.291 211.873 774.003 212.988C771.745 214.073 769.105 214.616 766.083 214.616ZM766.083 210.128C768.019 210.128 769.677 209.776 771.055 209.072C772.463 208.368 773.549 207.385 774.311 206.124C775.074 204.833 775.455 203.308 775.455 201.548C775.455 199.788 775.074 198.277 774.311 197.016C773.549 195.725 772.463 194.728 771.055 194.024C769.677 193.32 768.019 192.968 766.083 192.968C764.177 192.968 762.519 193.32 761.111 194.024C759.703 194.728 758.618 195.725 757.855 197.016C757.093 198.277 756.711 199.788 756.711 201.548C756.711 203.308 757.093 204.833 757.855 206.124C758.618 207.385 759.703 208.368 761.111 209.072C762.519 209.776 764.177 210.128 766.083 210.128ZM785.913 189.096H791.633V197.764L791.369 198.644V203.66L791.633 205.2V221.26H785.913V189.096ZM789.433 201.548C789.99 198.908 790.914 196.62 792.205 194.684C793.496 192.719 795.08 191.193 796.957 190.108C798.864 189.023 800.976 188.48 803.293 188.48C805.728 188.48 807.884 189.037 809.761 190.152C811.638 191.237 813.105 192.763 814.161 194.728C815.217 196.664 815.745 198.937 815.745 201.548C815.745 204.129 815.217 206.403 814.161 208.368C813.105 210.333 811.638 211.873 809.761 212.988C807.884 214.073 805.728 214.616 803.293 214.616C800.976 214.616 798.878 214.073 797.001 212.988C795.124 211.903 793.525 210.377 792.205 208.412C790.914 206.447 789.99 204.159 789.433 201.548ZM809.937 201.548C809.937 199.876 809.585 198.409 808.881 197.148C808.206 195.857 807.268 194.86 806.065 194.156C804.862 193.423 803.484 193.056 801.929 193.056C800.374 193.056 798.908 193.423 797.529 194.156C796.18 194.86 794.992 195.857 793.965 197.148C792.938 198.409 792.102 199.876 791.457 201.548C792.102 203.22 792.938 204.701 793.965 205.992C794.992 207.253 796.18 208.251 797.529 208.984C798.908 209.688 800.374 210.04 801.929 210.04C803.484 210.04 804.862 209.688 806.065 208.984C807.268 208.251 808.206 207.253 808.881 205.992C809.585 204.701 809.937 203.22 809.937 201.548ZM834.275 214.616C831.253 214.616 828.599 214.073 826.311 212.988C824.052 211.873 822.277 210.333 820.987 208.368C819.725 206.403 819.095 204.129 819.095 201.548C819.095 198.937 819.725 196.664 820.987 194.728C822.277 192.763 824.052 191.237 826.311 190.152C828.599 189.037 831.253 188.48 834.275 188.48C837.296 188.48 839.936 189.037 842.195 190.152C844.483 191.237 846.257 192.763 847.519 194.728C848.809 196.664 849.455 198.937 849.455 201.548C849.455 204.129 848.809 206.403 847.519 208.368C846.257 210.333 844.483 211.873 842.195 212.988C839.936 214.073 837.296 214.616 834.275 214.616ZM834.275 210.128C836.211 210.128 837.868 209.776 839.247 209.072C840.655 208.368 841.74 207.385 842.503 206.124C843.265 204.833 843.647 203.308 843.647 201.548C843.647 199.788 843.265 198.277 842.503 197.016C841.74 195.725 840.655 194.728 839.247 194.024C837.868 193.32 836.211 192.968 834.275 192.968C832.368 192.968 830.711 193.32 829.303 194.024C827.895 194.728 826.809 195.725 826.047 197.016C825.284 198.277 824.903 199.788 824.903 201.548C824.903 203.308 825.284 204.833 826.047 206.124C826.809 207.385 827.895 208.368 829.303 209.072C830.711 209.776 832.368 210.128 834.275 210.128ZM873.772 189.096V193.584H857.184L859.824 190.944V214H854.104V189.096H873.772ZM890.048 214.616C887.027 214.616 884.372 214.073 882.084 212.988C879.826 211.873 878.051 210.333 876.76 208.368C875.499 206.403 874.868 204.129 874.868 201.548C874.868 198.937 875.499 196.664 876.76 194.728C878.051 192.763 879.826 191.237 882.084 190.152C884.372 189.037 887.027 188.48 890.048 188.48C893.07 188.48 895.71 189.037 897.968 190.152C900.256 191.237 902.031 192.763 903.292 194.728C904.583 196.664 905.228 198.937 905.228 201.548C905.228 204.129 904.583 206.403 903.292 208.368C902.031 210.333 900.256 211.873 897.968 212.988C895.71 214.073 893.07 214.616 890.048 214.616ZM890.048 210.128C891.984 210.128 893.642 209.776 895.02 209.072C896.428 208.368 897.514 207.385 898.276 206.124C899.039 204.833 899.42 203.308 899.42 201.548C899.42 199.788 899.039 198.277 898.276 197.016C897.514 195.725 896.428 194.728 895.02 194.024C893.642 193.32 891.984 192.968 890.048 192.968C888.142 192.968 886.484 193.32 885.076 194.024C883.668 194.728 882.583 195.725 881.82 197.016C881.058 198.277 880.676 199.788 880.676 201.548C880.676 203.308 881.058 204.833 881.82 206.124C882.583 207.385 883.668 208.368 885.076 209.072C886.484 209.776 888.142 210.128 890.048 210.128ZM921.522 189.096H927.198V214H921.522V189.096ZM942.686 189.096H948.362V214H942.686V189.096ZM924.734 199.172H945.062V203.572H924.734V199.172ZM968.032 214.616C965.128 214.616 962.547 214.073 960.288 212.988C958.03 211.873 956.255 210.333 954.964 208.368C953.674 206.403 953.028 204.115 953.028 201.504C953.028 198.923 953.63 196.664 954.832 194.728C956.064 192.763 957.751 191.237 959.892 190.152C962.063 189.037 964.542 188.48 967.328 188.48C970.115 188.48 972.52 189.111 974.544 190.372C976.598 191.604 978.182 193.349 979.296 195.608C980.411 197.867 980.968 200.521 980.968 203.572H957.516V199.216H978.108L975.248 200.844C975.16 199.201 974.764 197.793 974.06 196.62C973.386 195.447 972.462 194.552 971.288 193.936C970.144 193.291 968.78 192.968 967.196 192.968C965.524 192.968 964.058 193.305 962.796 193.98C961.564 194.655 960.596 195.608 959.892 196.84C959.188 198.043 958.836 199.48 958.836 201.152C958.836 203 959.247 204.599 960.068 205.948C960.919 207.297 962.107 208.339 963.632 209.072C965.187 209.776 967.02 210.128 969.132 210.128C971.039 210.128 972.99 209.835 974.984 209.248C976.979 208.632 978.739 207.781 980.264 206.696V210.832C978.739 212.005 976.876 212.929 974.676 213.604C972.506 214.279 970.291 214.616 968.032 214.616ZM992.391 191.076H998.111V214H992.391V191.076ZM982.051 189.096H1008.45V193.584H982.051V189.096ZM1045.64 214L1044.68 204.76L1045.82 201.548L1044.68 198.38L1045.64 189.096H1051.54L1050.22 201.548L1051.54 214H1045.64ZM1047.4 201.548C1046.85 204.159 1045.92 206.447 1044.63 208.412C1043.34 210.377 1041.74 211.903 1039.84 212.988C1037.96 214.073 1035.86 214.616 1033.54 214.616C1031.11 214.616 1028.95 214.073 1027.08 212.988C1025.2 211.873 1023.73 210.333 1022.68 208.368C1021.62 206.403 1021.09 204.129 1021.09 201.548C1021.09 198.937 1021.62 196.664 1022.68 194.728C1023.73 192.763 1025.2 191.237 1027.08 190.152C1028.95 189.037 1031.11 188.48 1033.54 188.48C1035.86 188.48 1037.96 189.023 1039.84 190.108C1041.74 191.193 1043.34 192.719 1044.63 194.684C1045.95 196.62 1046.88 198.908 1047.4 201.548ZM1026.9 201.548C1026.9 203.22 1027.24 204.701 1027.91 205.992C1028.62 207.253 1029.57 208.251 1030.77 208.984C1031.98 209.688 1033.35 210.04 1034.91 210.04C1036.49 210.04 1037.96 209.688 1039.31 208.984C1040.66 208.251 1041.85 207.253 1042.87 205.992C1043.93 204.701 1044.76 203.22 1045.38 201.548C1044.76 199.876 1043.93 198.409 1042.87 197.148C1041.85 195.857 1040.66 194.86 1039.31 194.156C1037.96 193.423 1036.49 193.056 1034.91 193.056C1033.35 193.056 1031.98 193.423 1030.77 194.156C1029.57 194.86 1028.62 195.857 1027.91 197.148C1027.24 198.409 1026.9 199.876 1026.9 201.548ZM1057.05 189.096H1062.72V214H1057.05V189.096ZM1078.21 189.096H1083.89V214H1078.21V189.096ZM1060.26 199.172H1080.59V203.572H1060.26V199.172ZM1113.19 214L1112.22 204.76L1113.37 201.548L1112.22 198.38L1113.19 189.096H1119.09L1117.77 201.548L1119.09 214H1113.19ZM1114.95 201.548C1114.39 204.159 1113.47 206.447 1112.18 208.412C1110.89 210.377 1109.29 211.903 1107.38 212.988C1105.51 214.073 1103.41 214.616 1101.09 214.616C1098.66 214.616 1096.5 214.073 1094.62 212.988C1092.75 211.873 1091.28 210.333 1090.22 208.368C1089.17 206.403 1088.64 204.129 1088.64 201.548C1088.64 198.937 1089.17 196.664 1090.22 194.728C1091.28 192.763 1092.75 191.237 1094.62 190.152C1096.5 189.037 1098.66 188.48 1101.09 188.48C1103.41 188.48 1105.51 189.023 1107.38 190.108C1109.29 191.193 1110.89 192.719 1112.18 194.684C1113.5 196.62 1114.42 198.908 1114.95 201.548ZM1094.45 201.548C1094.45 203.22 1094.79 204.701 1095.46 205.992C1096.16 207.253 1097.12 208.251 1098.32 208.984C1099.52 209.688 1100.9 210.04 1102.46 210.04C1104.04 210.04 1105.51 209.688 1106.86 208.984C1108.21 208.251 1109.39 207.253 1110.42 205.992C1111.48 204.701 1112.31 203.22 1112.93 201.548C1112.31 199.876 1111.48 198.409 1110.42 197.148C1109.39 195.857 1108.21 194.86 1106.86 194.156C1105.51 193.423 1104.04 193.056 1102.46 193.056C1100.9 193.056 1099.52 193.423 1098.32 194.156C1097.12 194.86 1096.16 195.857 1095.46 197.148C1094.79 198.409 1094.45 199.876 1094.45 201.548ZM1128.95 189.096H1153.46V214H1147.74V190.856L1150.38 193.496H1131.81L1134.27 191.472C1134.42 193.291 1134.54 195.021 1134.62 196.664C1134.74 198.277 1134.8 199.729 1134.8 201.02C1134.8 205.713 1134.14 209.131 1132.82 211.272C1131.5 213.413 1129.37 214.484 1126.44 214.484C1125.65 214.484 1124.89 214.396 1124.15 214.22C1123.42 214.044 1122.72 213.765 1122.04 213.384V209.116C1122.57 209.321 1123.08 209.483 1123.58 209.6C1124.11 209.717 1124.59 209.776 1125.03 209.776C1126.65 209.776 1127.8 209.028 1128.51 207.532C1129.24 206.036 1129.61 203.601 1129.61 200.228C1129.61 198.761 1129.55 197.089 1129.43 195.212C1129.34 193.335 1129.18 191.296 1128.95 189.096ZM1173.3 214.616C1170.28 214.616 1167.62 214.073 1165.33 212.988C1163.08 211.873 1161.3 210.333 1160.01 208.368C1158.75 206.403 1158.12 204.129 1158.12 201.548C1158.12 198.937 1158.75 196.664 1160.01 194.728C1161.3 192.763 1163.08 191.237 1165.33 190.152C1167.62 189.037 1170.28 188.48 1173.3 188.48C1176.32 188.48 1178.96 189.037 1181.22 190.152C1183.51 191.237 1185.28 192.763 1186.54 194.728C1187.83 196.664 1188.48 198.937 1188.48 201.548C1188.48 204.129 1187.83 206.403 1186.54 208.368C1185.28 210.333 1183.51 211.873 1181.22 212.988C1178.96 214.073 1176.32 214.616 1173.3 214.616ZM1173.3 210.128C1175.23 210.128 1176.89 209.776 1178.27 209.072C1179.68 208.368 1180.76 207.385 1181.53 206.124C1182.29 204.833 1182.67 203.308 1182.67 201.548C1182.67 199.788 1182.29 198.277 1181.53 197.016C1180.76 195.725 1179.68 194.728 1178.27 194.024C1176.89 193.32 1175.23 192.968 1173.3 192.968C1171.39 192.968 1169.73 193.32 1168.33 194.024C1166.92 194.728 1165.83 195.725 1165.07 197.016C1164.31 198.277 1163.93 199.788 1163.93 201.548C1163.93 203.308 1164.31 204.833 1165.07 206.124C1165.83 207.385 1166.92 208.368 1168.33 209.072C1169.73 209.776 1171.39 210.128 1173.3 210.128ZM1212.8 189.096V193.584H1196.21L1198.85 190.944V214H1193.13V189.096H1212.8ZM1229.07 214.616C1226.05 214.616 1223.4 214.073 1221.11 212.988C1218.85 211.873 1217.07 210.333 1215.78 208.368C1214.52 206.403 1213.89 204.129 1213.89 201.548C1213.89 198.937 1214.52 196.664 1215.78 194.728C1217.07 192.763 1218.85 191.237 1221.11 190.152C1223.4 189.037 1226.05 188.48 1229.07 188.48C1232.09 188.48 1234.73 189.037 1236.99 190.152C1239.28 191.237 1241.05 192.763 1242.32 194.728C1243.61 196.664 1244.25 198.937 1244.25 201.548C1244.25 204.129 1243.61 206.403 1242.32 208.368C1241.05 210.333 1239.28 211.873 1236.99 212.988C1234.73 214.073 1232.09 214.616 1229.07 214.616ZM1229.07 210.128C1231.01 210.128 1232.67 209.776 1234.04 209.072C1235.45 208.368 1236.54 207.385 1237.3 206.124C1238.06 204.833 1238.44 203.308 1238.44 201.548C1238.44 199.788 1238.06 198.277 1237.3 197.016C1236.54 195.725 1235.45 194.728 1234.04 194.024C1232.67 193.32 1231.01 192.968 1229.07 192.968C1227.17 192.968 1225.51 193.32 1224.1 194.024C1222.69 194.728 1221.61 195.725 1220.84 197.016C1220.08 198.277 1219.7 199.788 1219.7 201.548C1219.7 203.308 1220.08 204.833 1220.84 206.124C1221.61 207.385 1222.69 208.368 1224.1 209.072C1225.51 209.776 1227.17 210.128 1229.07 210.128ZM1248.33 214L1249.61 201.548L1248.33 189.096H1266.37C1268.77 189.096 1270.65 189.653 1272 190.768C1273.38 191.883 1274.07 193.423 1274.07 195.388C1274.07 197.207 1273.38 198.673 1272 199.788C1270.65 200.873 1268.76 201.519 1266.33 201.724L1266.77 200.668C1269.64 200.727 1271.84 201.313 1273.37 202.428C1274.89 203.543 1275.65 205.112 1275.65 207.136C1275.65 209.277 1274.88 210.964 1273.32 212.196C1271.8 213.399 1269.67 214 1266.94 214H1248.33ZM1253.87 212.592L1251.67 210.04H1265.49C1267.04 210.04 1268.16 209.747 1268.83 209.16C1269.54 208.544 1269.89 207.693 1269.89 206.608C1269.89 205.64 1269.49 204.833 1268.7 204.188C1267.94 203.543 1266.65 203.22 1264.83 203.22H1252.91V199.524H1263.99C1265.49 199.524 1266.57 199.231 1267.25 198.644C1267.95 198.028 1268.31 197.236 1268.31 196.268C1268.31 195.329 1268 194.567 1267.38 193.98C1266.79 193.364 1265.8 193.056 1264.39 193.056H1251.72L1253.87 190.548L1255.11 201.548L1253.87 212.592Z" fill="black"/>
    <path d="M599.005 272V258H608.605V259.28H600.485V270.72H608.905V272H599.005ZM600.325 265.52V264.26H607.725V265.52H600.325ZM616.092 272.1C615.052 272.1 614.119 271.873 613.292 271.42C612.479 270.953 611.839 270.32 611.372 269.52C610.905 268.707 610.672 267.78 610.672 266.74C610.672 265.687 610.905 264.76 611.372 263.96C611.839 263.16 612.479 262.533 613.292 262.08C614.119 261.627 615.052 261.4 616.092 261.4C616.985 261.4 617.792 261.573 618.512 261.92C619.232 262.267 619.799 262.787 620.212 263.48L619.152 264.2C618.792 263.667 618.345 263.273 617.812 263.02C617.279 262.767 616.699 262.64 616.072 262.64C615.325 262.64 614.652 262.813 614.052 263.16C613.452 263.493 612.979 263.967 612.632 264.58C612.285 265.193 612.112 265.913 612.112 266.74C612.112 267.567 612.285 268.287 612.632 268.9C612.979 269.513 613.452 269.993 614.052 270.34C614.652 270.673 615.325 270.84 616.072 270.84C616.699 270.84 617.279 270.713 617.812 270.46C618.345 270.207 618.792 269.82 619.152 269.3L620.212 270.02C619.799 270.7 619.232 271.22 618.512 271.58C617.792 271.927 616.985 272.1 616.092 272.1ZM621.71 272.12C621.55 272.12 621.383 272.107 621.21 272.08C621.05 272.053 620.877 272.02 620.69 271.98L620.79 270.76C620.883 270.773 620.97 270.793 621.05 270.82C621.143 270.833 621.223 270.84 621.29 270.84C621.717 270.84 622.057 270.68 622.31 270.36C622.577 270.04 622.777 269.613 622.91 269.08C623.043 268.547 623.137 267.947 623.19 267.28C623.243 266.6 623.29 265.92 623.33 265.24L623.51 261.5H631.21V272H629.79V262.32L630.15 262.74H624.43L624.77 262.3L624.61 265.34C624.57 266.247 624.497 267.113 624.39 267.94C624.297 268.767 624.143 269.493 623.93 270.12C623.73 270.747 623.45 271.24 623.09 271.6C622.73 271.947 622.27 272.12 621.71 272.12ZM635.247 272V261.5H636.667V269.84L643.687 261.5H644.947V272H643.527V263.64L636.527 272H635.247ZM654.25 272V261.5H658.89C660.077 261.5 661.01 261.727 661.69 262.18C662.384 262.633 662.73 263.3 662.73 264.18C662.73 265.033 662.404 265.693 661.75 266.16C661.097 266.613 660.237 266.84 659.17 266.84L659.45 266.42C660.704 266.42 661.624 266.653 662.21 267.12C662.797 267.587 663.09 268.26 663.09 269.14C663.09 270.047 662.757 270.753 662.09 271.26C661.437 271.753 660.417 272 659.03 272H654.25ZM655.63 270.88H658.97C659.864 270.88 660.537 270.74 660.99 270.46C661.457 270.167 661.69 269.7 661.69 269.06C661.69 268.42 661.484 267.953 661.07 267.66C660.657 267.367 660.004 267.22 659.11 267.22H655.63V270.88ZM655.63 266.16H658.79C659.604 266.16 660.224 266.007 660.65 265.7C661.09 265.393 661.31 264.947 661.31 264.36C661.31 263.773 661.09 263.333 660.65 263.04C660.224 262.747 659.604 262.6 658.79 262.6H655.63V266.16ZM670.578 272.02L666.418 272V261.5H667.838V265.16L670.838 265.2C672.158 265.213 673.165 265.507 673.858 266.08C674.552 266.653 674.898 267.48 674.898 268.56C674.898 269.68 674.525 270.54 673.778 271.14C673.032 271.74 671.965 272.033 670.578 272.02ZM670.478 270.94C671.465 270.953 672.205 270.76 672.698 270.36C673.205 269.947 673.458 269.347 673.458 268.56C673.458 267.773 673.212 267.2 672.718 266.84C672.225 266.467 671.478 266.273 670.478 266.26L667.838 266.22V270.9L670.478 270.94ZM676.658 272V261.5H678.078V272H676.658ZM690.176 272.12C689.416 272.12 688.663 272.013 687.916 271.8C687.169 271.587 686.509 271.26 685.936 270.82L686.396 269.76C686.903 270.133 687.489 270.42 688.156 270.62C688.823 270.807 689.483 270.9 690.136 270.9C690.789 270.887 691.356 270.793 691.836 270.62C692.316 270.447 692.689 270.207 692.956 269.9C693.223 269.593 693.356 269.247 693.356 268.86C693.356 268.3 693.103 267.867 692.596 267.56C692.089 267.24 691.396 267.08 690.516 267.08H688.416V266.04H690.416C690.936 266.04 691.396 265.973 691.796 265.84C692.196 265.707 692.503 265.513 692.716 265.26C692.943 265.007 693.056 264.707 693.056 264.36C693.056 263.987 692.923 263.667 692.656 263.4C692.403 263.133 692.049 262.933 691.596 262.8C691.143 262.667 690.629 262.6 690.056 262.6C689.536 262.613 688.996 262.693 688.436 262.84C687.876 262.973 687.323 263.18 686.776 263.46L686.376 262.36C686.989 262.04 687.596 261.8 688.196 261.64C688.809 261.467 689.423 261.38 690.036 261.38C690.876 261.353 691.629 261.453 692.296 261.68C692.976 261.907 693.516 262.233 693.916 262.66C694.316 263.073 694.516 263.573 694.516 264.16C694.516 264.68 694.356 265.133 694.036 265.52C693.716 265.907 693.289 266.207 692.756 266.42C692.223 266.633 691.616 266.74 690.936 266.74L690.996 266.36C692.196 266.36 693.129 266.593 693.796 267.06C694.476 267.527 694.816 268.16 694.816 268.96C694.816 269.587 694.609 270.14 694.196 270.62C693.783 271.087 693.223 271.453 692.516 271.72C691.823 271.987 691.043 272.12 690.176 272.12ZM698.04 272V261.5H699.46V266.14H706.08V261.5H707.5V272H706.08V267.36H699.46V272H698.04ZM718.056 272V269.68L717.996 269.3V265.42C717.996 264.527 717.742 263.84 717.236 263.36C716.742 262.88 716.002 262.64 715.016 262.64C714.336 262.64 713.689 262.753 713.076 262.98C712.462 263.207 711.942 263.507 711.516 263.88L710.876 262.82C711.409 262.367 712.049 262.02 712.796 261.78C713.542 261.527 714.329 261.4 715.156 261.4C716.516 261.4 717.562 261.74 718.296 262.42C719.042 263.087 719.416 264.107 719.416 265.48V272H718.056ZM714.436 272.1C713.649 272.1 712.962 271.973 712.376 271.72C711.802 271.453 711.362 271.093 711.056 270.64C710.749 270.173 710.596 269.64 710.596 269.04C710.596 268.493 710.722 268 710.976 267.56C711.242 267.107 711.669 266.747 712.256 266.48C712.856 266.2 713.656 266.06 714.656 266.06H718.276V267.12H714.696C713.682 267.12 712.976 267.3 712.576 267.66C712.189 268.02 711.996 268.467 711.996 269C711.996 269.6 712.229 270.08 712.696 270.44C713.162 270.8 713.816 270.98 714.656 270.98C715.456 270.98 716.142 270.8 716.716 270.44C717.302 270.067 717.729 269.533 717.996 268.84L718.316 269.82C718.049 270.513 717.582 271.067 716.916 271.48C716.262 271.893 715.436 272.1 714.436 272.1ZM727.696 272.1C726.602 272.1 725.642 271.873 724.816 271.42C723.989 270.953 723.342 270.32 722.876 269.52C722.409 268.707 722.176 267.78 722.176 266.74C722.176 265.7 722.396 264.78 722.836 263.98C723.289 263.18 723.902 262.553 724.676 262.1C725.462 261.633 726.342 261.4 727.316 261.4C728.302 261.4 729.176 261.627 729.936 262.08C730.709 262.52 731.316 263.147 731.756 263.96C732.196 264.76 732.416 265.687 732.416 266.74C732.416 266.807 732.409 266.88 732.396 266.96C732.396 267.027 732.396 267.1 732.396 267.18H723.256V266.12H731.636L731.076 266.54C731.076 265.78 730.909 265.107 730.576 264.52C730.256 263.92 729.816 263.453 729.256 263.12C728.696 262.787 728.049 262.62 727.316 262.62C726.596 262.62 725.949 262.787 725.376 263.12C724.802 263.453 724.356 263.92 724.036 264.52C723.716 265.12 723.556 265.807 723.556 266.58V266.8C723.556 267.6 723.729 268.307 724.076 268.92C724.436 269.52 724.929 269.993 725.556 270.34C726.196 270.673 726.922 270.84 727.736 270.84C728.376 270.84 728.969 270.727 729.516 270.5C730.076 270.273 730.556 269.927 730.956 269.46L731.756 270.38C731.289 270.94 730.702 271.367 729.996 271.66C729.302 271.953 728.536 272.1 727.696 272.1ZM737.09 272V262.36L737.45 262.74H733.11V261.5H742.49V262.74H738.15L738.51 262.36V272H737.09ZM748.555 272.1C747.462 272.1 746.502 271.873 745.675 271.42C744.848 270.953 744.202 270.32 743.735 269.52C743.268 268.707 743.035 267.78 743.035 266.74C743.035 265.7 743.255 264.78 743.695 263.98C744.148 263.18 744.762 262.553 745.535 262.1C746.322 261.633 747.202 261.4 748.175 261.4C749.162 261.4 750.035 261.627 750.795 262.08C751.568 262.52 752.175 263.147 752.615 263.96C753.055 264.76 753.275 265.687 753.275 266.74C753.275 266.807 753.268 266.88 753.255 266.96C753.255 267.027 753.255 267.1 753.255 267.18H744.115V266.12H752.495L751.935 266.54C751.935 265.78 751.768 265.107 751.435 264.52C751.115 263.92 750.675 263.453 750.115 263.12C749.555 262.787 748.908 262.62 748.175 262.62C747.455 262.62 746.808 262.787 746.235 263.12C745.662 263.453 745.215 263.92 744.895 264.52C744.575 265.12 744.415 265.807 744.415 266.58V266.8C744.415 267.6 744.588 268.307 744.935 268.92C745.295 269.52 745.788 269.993 746.415 270.34C747.055 270.673 747.782 270.84 748.595 270.84C749.235 270.84 749.828 270.727 750.375 270.5C750.935 270.273 751.415 269.927 751.815 269.46L752.615 270.38C752.148 270.94 751.562 271.367 750.855 271.66C750.162 271.953 749.395 272.1 748.555 272.1ZM761.653 272V261.5H771.093V272H769.673V262.36L770.033 262.74H762.713L763.073 262.36V272H761.653ZM779.449 272.1C778.436 272.1 777.523 271.873 776.709 271.42C775.909 270.953 775.276 270.32 774.809 269.52C774.343 268.707 774.109 267.78 774.109 266.74C774.109 265.687 774.343 264.76 774.809 263.96C775.276 263.16 775.909 262.533 776.709 262.08C777.509 261.627 778.423 261.4 779.449 261.4C780.489 261.4 781.409 261.627 782.209 262.08C783.023 262.533 783.656 263.16 784.109 263.96C784.576 264.76 784.809 265.687 784.809 266.74C784.809 267.78 784.576 268.707 784.109 269.52C783.656 270.32 783.023 270.953 782.209 271.42C781.396 271.873 780.476 272.1 779.449 272.1ZM779.449 270.84C780.209 270.84 780.883 270.673 781.469 270.34C782.056 269.993 782.516 269.513 782.849 268.9C783.196 268.273 783.369 267.553 783.369 266.74C783.369 265.913 783.196 265.193 782.849 264.58C782.516 263.967 782.056 263.493 781.469 263.16C780.883 262.813 780.216 262.64 779.469 262.64C778.723 262.64 778.056 262.813 777.469 263.16C776.883 263.493 776.416 263.967 776.069 264.58C775.723 265.193 775.549 265.913 775.549 266.74C775.549 267.553 775.723 268.273 776.069 268.9C776.416 269.513 776.883 269.993 777.469 270.34C778.056 270.673 778.716 270.84 779.449 270.84ZM785.792 272L790.232 266.24L790.212 266.94L785.992 261.5H787.592L791.052 266L790.452 265.98L793.912 261.5H795.472L791.212 267L791.232 266.24L795.712 272H794.092L790.432 267.2L790.992 267.28L787.392 272H785.792ZM802.028 272.1C801.014 272.1 800.101 271.873 799.288 271.42C798.488 270.953 797.854 270.32 797.388 269.52C796.921 268.707 796.688 267.78 796.688 266.74C796.688 265.687 796.921 264.76 797.388 263.96C797.854 263.16 798.488 262.533 799.288 262.08C800.088 261.627 801.001 261.4 802.028 261.4C803.068 261.4 803.988 261.627 804.788 262.08C805.601 262.533 806.234 263.16 806.688 263.96C807.154 264.76 807.388 265.687 807.388 266.74C807.388 267.78 807.154 268.707 806.688 269.52C806.234 270.32 805.601 270.953 804.788 271.42C803.974 271.873 803.054 272.1 802.028 272.1ZM802.028 270.84C802.788 270.84 803.461 270.673 804.048 270.34C804.634 269.993 805.094 269.513 805.428 268.9C805.774 268.273 805.948 267.553 805.948 266.74C805.948 265.913 805.774 265.193 805.428 264.58C805.094 263.967 804.634 263.493 804.048 263.16C803.461 262.813 802.794 262.64 802.048 262.64C801.301 262.64 800.634 262.813 800.048 263.16C799.461 263.493 798.994 263.967 798.648 264.58C798.301 265.193 798.128 265.913 798.128 266.74C798.128 267.553 798.301 268.273 798.648 268.9C798.994 269.513 799.461 269.993 800.048 270.34C800.634 270.673 801.294 270.84 802.028 270.84ZM822.55 272L818.95 266.8L820.13 266.1L824.25 272H822.55ZM808.41 272L812.53 266.1L813.69 266.8L810.11 272H808.41ZM812.41 266.9L808.71 261.5H810.25L813.73 266.7L812.41 266.9ZM812.75 267.32V266.1H816.05V267.32H812.75ZM815.61 272V261.5H817.03V272H815.61ZM816.59 267.32V266.1H819.91V267.32H816.59ZM820.27 266.9L818.91 266.7L822.41 261.5H823.95L820.27 266.9ZM826.614 272V261.5H828.034V269.84L835.054 261.5H836.314V272H834.894V263.64L827.894 272H826.614ZM840.383 272V261.5H841.803V269.84L848.823 261.5H850.083V272H848.663V263.64L841.663 272H840.383ZM845.143 259.98C844.263 259.98 843.55 259.76 843.003 259.32C842.47 258.867 842.19 258.22 842.163 257.38H843.183C843.197 257.913 843.383 258.333 843.743 258.64C844.103 258.947 844.57 259.1 845.143 259.1C845.717 259.1 846.183 258.947 846.543 258.64C846.917 258.333 847.11 257.913 847.123 257.38H848.143C848.13 258.22 847.85 258.867 847.303 259.32C846.757 259.76 846.037 259.98 845.143 259.98ZM863.787 272.1C862.747 272.1 861.814 271.873 860.987 271.42C860.174 270.953 859.534 270.32 859.067 269.52C858.601 268.707 858.367 267.78 858.367 266.74C858.367 265.687 858.601 264.76 859.067 263.96C859.534 263.16 860.174 262.533 860.987 262.08C861.814 261.627 862.747 261.4 863.787 261.4C864.681 261.4 865.487 261.573 866.207 261.92C866.927 262.267 867.494 262.787 867.907 263.48L866.847 264.2C866.487 263.667 866.041 263.273 865.507 263.02C864.974 262.767 864.394 262.64 863.767 262.64C863.021 262.64 862.347 262.813 861.747 263.16C861.147 263.493 860.674 263.967 860.327 264.58C859.981 265.193 859.807 265.913 859.807 266.74C859.807 267.567 859.981 268.287 860.327 268.9C860.674 269.513 861.147 269.993 861.747 270.34C862.347 270.673 863.021 270.84 863.767 270.84C864.394 270.84 864.974 270.713 865.507 270.46C866.041 270.207 866.487 269.82 866.847 269.3L867.907 270.02C867.494 270.7 866.927 271.22 866.207 271.58C865.487 271.927 864.681 272.1 863.787 272.1ZM874.981 272.1C873.888 272.1 872.928 271.873 872.101 271.42C871.274 270.953 870.628 270.32 870.161 269.52C869.694 268.707 869.461 267.78 869.461 266.74C869.461 265.7 869.681 264.78 870.121 263.98C870.574 263.18 871.188 262.553 871.961 262.1C872.748 261.633 873.628 261.4 874.601 261.4C875.588 261.4 876.461 261.627 877.221 262.08C877.994 262.52 878.601 263.147 879.041 263.96C879.481 264.76 879.701 265.687 879.701 266.74C879.701 266.807 879.694 266.88 879.681 266.96C879.681 267.027 879.681 267.1 879.681 267.18H870.541V266.12H878.921L878.361 266.54C878.361 265.78 878.194 265.107 877.861 264.52C877.541 263.92 877.101 263.453 876.541 263.12C875.981 262.787 875.334 262.62 874.601 262.62C873.881 262.62 873.234 262.787 872.661 263.12C872.088 263.453 871.641 263.92 871.321 264.52C871.001 265.12 870.841 265.807 870.841 266.58V266.8C870.841 267.6 871.014 268.307 871.361 268.92C871.721 269.52 872.214 269.993 872.841 270.34C873.481 270.673 874.208 270.84 875.021 270.84C875.661 270.84 876.254 270.727 876.801 270.5C877.361 270.273 877.841 269.927 878.241 269.46L879.041 270.38C878.574 270.94 877.988 271.367 877.281 271.66C876.588 271.953 875.821 272.1 874.981 272.1ZM888.264 272.1C887.358 272.1 886.538 271.893 885.804 271.48C885.071 271.053 884.484 270.447 884.044 269.66C883.618 268.86 883.404 267.887 883.404 266.74C883.404 265.593 883.618 264.627 884.044 263.84C884.471 263.04 885.051 262.433 885.784 262.02C886.518 261.607 887.344 261.4 888.264 261.4C889.264 261.4 890.158 261.627 890.944 262.08C891.744 262.52 892.371 263.147 892.824 263.96C893.278 264.76 893.504 265.687 893.504 266.74C893.504 267.807 893.278 268.74 892.824 269.54C892.371 270.34 891.744 270.967 890.944 271.42C890.158 271.873 889.264 272.1 888.264 272.1ZM882.844 275.88V261.5H884.204V264.66L884.064 266.76L884.264 268.88V275.88H882.844ZM888.164 270.84C888.911 270.84 889.578 270.673 890.164 270.34C890.751 269.993 891.218 269.513 891.564 268.9C891.911 268.273 892.084 267.553 892.084 266.74C892.084 265.927 891.911 265.213 891.564 264.6C891.218 263.987 890.751 263.507 890.164 263.16C889.578 262.813 888.911 262.64 888.164 262.64C887.418 262.64 886.744 262.813 886.144 263.16C885.558 263.507 885.091 263.987 884.744 264.6C884.411 265.213 884.244 265.927 884.244 266.74C884.244 267.553 884.411 268.273 884.744 268.9C885.091 269.513 885.558 269.993 886.144 270.34C886.744 270.673 887.418 270.84 888.164 270.84ZM896.555 272V261.5H901.195C902.382 261.5 903.315 261.727 903.995 262.18C904.688 262.633 905.035 263.3 905.035 264.18C905.035 265.033 904.708 265.693 904.055 266.16C903.402 266.613 902.542 266.84 901.475 266.84L901.755 266.42C903.008 266.42 903.928 266.653 904.515 267.12C905.102 267.587 905.395 268.26 905.395 269.14C905.395 270.047 905.062 270.753 904.395 271.26C903.742 271.753 902.722 272 901.335 272H896.555ZM897.935 270.88H901.275C902.168 270.88 902.842 270.74 903.295 270.46C903.762 270.167 903.995 269.7 903.995 269.06C903.995 268.42 903.788 267.953 903.375 267.66C902.962 267.367 902.308 267.22 901.415 267.22H897.935V270.88ZM897.935 266.16H901.095C901.908 266.16 902.528 266.007 902.955 265.7C903.395 265.393 903.615 264.947 903.615 264.36C903.615 263.773 903.395 263.333 902.955 263.04C902.528 262.747 901.908 262.6 901.095 262.6H897.935V266.16ZM908.723 272V261.5H910.143V269.84L917.163 261.5H918.423V272H917.003V263.64L910.003 272H908.723ZM926.893 272.1C925.853 272.1 924.919 271.873 924.093 271.42C923.279 270.953 922.639 270.32 922.173 269.52C921.706 268.707 921.473 267.78 921.473 266.74C921.473 265.687 921.706 264.76 922.173 263.96C922.639 263.16 923.279 262.533 924.093 262.08C924.919 261.627 925.853 261.4 926.893 261.4C927.786 261.4 928.593 261.573 929.313 261.92C930.033 262.267 930.599 262.787 931.013 263.48L929.953 264.2C929.593 263.667 929.146 263.273 928.613 263.02C928.079 262.767 927.499 262.64 926.873 262.64C926.126 262.64 925.453 262.813 924.853 263.16C924.253 263.493 923.779 263.967 923.433 264.58C923.086 265.193 922.913 265.913 922.913 266.74C922.913 267.567 923.086 268.287 923.433 268.9C923.779 269.513 924.253 269.993 924.853 270.34C925.453 270.673 926.126 270.84 926.873 270.84C927.499 270.84 928.079 270.713 928.613 270.46C929.146 270.207 929.593 269.82 929.953 269.3L931.013 270.02C930.599 270.7 930.033 271.22 929.313 271.58C928.593 271.927 927.786 272.1 926.893 272.1ZM933.253 274.92L934.133 271.22L934.293 272.08C933.986 272.08 933.726 271.98 933.513 271.78C933.313 271.58 933.213 271.32 933.213 271C933.213 270.68 933.313 270.42 933.513 270.22C933.726 270.02 933.979 269.92 934.273 269.92C934.579 269.92 934.826 270.027 935.013 270.24C935.213 270.453 935.313 270.707 935.313 271C935.313 271.107 935.306 271.213 935.293 271.32C935.279 271.427 935.253 271.547 935.213 271.68C935.173 271.813 935.119 271.973 935.053 272.16L934.213 274.92H933.253ZM943.625 272V261.5H945.045V266.14H951.665V261.5H953.085V272H951.665V267.36H945.045V272H943.625ZM963.642 272V269.68L963.582 269.3V265.42C963.582 264.527 963.328 263.84 962.822 263.36C962.328 262.88 961.588 262.64 960.602 262.64C959.922 262.64 959.275 262.753 958.662 262.98C958.048 263.207 957.528 263.507 957.102 263.88L956.462 262.82C956.995 262.367 957.635 262.02 958.382 261.78C959.128 261.527 959.915 261.4 960.742 261.4C962.102 261.4 963.148 261.74 963.882 262.42C964.628 263.087 965.002 264.107 965.002 265.48V272H963.642ZM960.022 272.1C959.235 272.1 958.548 271.973 957.962 271.72C957.388 271.453 956.948 271.093 956.642 270.64C956.335 270.173 956.182 269.64 956.182 269.04C956.182 268.493 956.308 268 956.562 267.56C956.828 267.107 957.255 266.747 957.842 266.48C958.442 266.2 959.242 266.06 960.242 266.06H963.862V267.12H960.282C959.268 267.12 958.562 267.3 958.162 267.66C957.775 268.02 957.582 268.467 957.582 269C957.582 269.6 957.815 270.08 958.282 270.44C958.748 270.8 959.402 270.98 960.242 270.98C961.042 270.98 961.728 270.8 962.302 270.44C962.888 270.067 963.315 269.533 963.582 268.84L963.902 269.82C963.635 270.513 963.168 271.067 962.502 271.48C961.848 271.893 961.022 272.1 960.022 272.1ZM968.782 272V261.5H978.222V272H976.802V262.36L977.162 262.74H969.842L970.202 262.36V272H968.782ZM982.258 272V261.5H983.678V269.84L990.698 261.5H991.958V272H990.538V263.64L983.538 272H982.258ZM996.028 272V261.5H997.448V271.14L997.088 270.76H1002.93L1002.61 271.14V261.5H1004.03V271.14L1003.65 270.76H1009.51L1009.13 271.14V261.5H1010.55V272H996.028ZM1014.58 272V261.5H1016V269.84L1023.02 261.5H1024.28V272H1022.86V263.64L1015.86 272H1014.58ZM1030.35 272V262.36L1030.71 262.74H1026.37V261.5H1035.75V262.74H1031.41L1031.77 262.36V272H1030.35ZM1041.82 272.1C1040.72 272.1 1039.76 271.873 1038.94 271.42C1038.11 270.953 1037.46 270.32 1037 269.52C1036.53 268.707 1036.3 267.78 1036.3 266.74C1036.3 265.7 1036.52 264.78 1036.96 263.98C1037.41 263.18 1038.02 262.553 1038.8 262.1C1039.58 261.633 1040.46 261.4 1041.44 261.4C1042.42 261.4 1043.3 261.627 1044.06 262.08C1044.83 262.52 1045.44 263.147 1045.88 263.96C1046.32 264.76 1046.54 265.687 1046.54 266.74C1046.54 266.807 1046.53 266.88 1046.52 266.96C1046.52 267.027 1046.52 267.1 1046.52 267.18H1037.38V266.12H1045.76L1045.2 266.54C1045.2 265.78 1045.03 265.107 1044.7 264.52C1044.38 263.92 1043.94 263.453 1043.38 263.12C1042.82 262.787 1042.17 262.62 1041.44 262.62C1040.72 262.62 1040.07 262.787 1039.5 263.12C1038.92 263.453 1038.48 263.92 1038.16 264.52C1037.84 265.12 1037.68 265.807 1037.68 266.58V266.8C1037.68 267.6 1037.85 268.307 1038.2 268.92C1038.56 269.52 1039.05 269.993 1039.68 270.34C1040.32 270.673 1041.04 270.84 1041.86 270.84C1042.5 270.84 1043.09 270.727 1043.64 270.5C1044.2 270.273 1044.68 269.927 1045.08 269.46L1045.88 270.38C1045.41 270.94 1044.82 271.367 1044.12 271.66C1043.42 271.953 1042.66 272.1 1041.82 272.1ZM1059.23 272.1C1058.22 272.1 1057.31 271.873 1056.49 271.42C1055.69 270.953 1055.06 270.32 1054.59 269.52C1054.13 268.707 1053.89 267.78 1053.89 266.74C1053.89 265.687 1054.13 264.76 1054.59 263.96C1055.06 263.16 1055.69 262.533 1056.49 262.08C1057.29 261.627 1058.21 261.4 1059.23 261.4C1060.27 261.4 1061.19 261.627 1061.99 262.08C1062.81 262.533 1063.44 263.16 1063.89 263.96C1064.36 264.76 1064.59 265.687 1064.59 266.74C1064.59 267.78 1064.36 268.707 1063.89 269.52C1063.44 270.32 1062.81 270.953 1061.99 271.42C1061.18 271.873 1060.26 272.1 1059.23 272.1ZM1059.23 270.84C1059.99 270.84 1060.67 270.673 1061.25 270.34C1061.84 269.993 1062.3 269.513 1062.63 268.9C1062.98 268.273 1063.15 267.553 1063.15 266.74C1063.15 265.913 1062.98 265.193 1062.63 264.58C1062.3 263.967 1061.84 263.493 1061.25 263.16C1060.67 262.813 1060 262.64 1059.25 262.64C1058.51 262.64 1057.84 262.813 1057.25 263.16C1056.67 263.493 1056.2 263.967 1055.85 264.58C1055.51 265.193 1055.33 265.913 1055.33 266.74C1055.33 267.553 1055.51 268.273 1055.85 268.9C1056.2 269.513 1056.67 269.993 1057.25 270.34C1057.84 270.673 1058.5 270.84 1059.23 270.84ZM1072.35 272.12C1071.5 272.12 1070.74 271.98 1070.07 271.7C1069.42 271.42 1068.86 270.993 1068.39 270.42C1067.92 269.847 1067.57 269.14 1067.33 268.3C1067.09 267.447 1066.97 266.46 1066.97 265.34C1066.97 264.34 1067.06 263.467 1067.25 262.72C1067.44 261.96 1067.7 261.307 1068.03 260.76C1068.36 260.213 1068.75 259.753 1069.19 259.38C1069.64 258.993 1070.13 258.687 1070.65 258.46C1071.18 258.22 1071.73 258.04 1072.29 257.92L1077.01 256.82L1077.25 258.14L1072.81 259.14C1072.53 259.207 1072.19 259.3 1071.79 259.42C1071.4 259.54 1071 259.72 1070.59 259.96C1070.19 260.2 1069.82 260.533 1069.47 260.96C1069.12 261.387 1068.84 261.94 1068.63 262.62C1068.43 263.287 1068.33 264.12 1068.33 265.12C1068.33 265.333 1068.34 265.507 1068.35 265.64C1068.36 265.76 1068.38 265.893 1068.39 266.04C1068.42 266.173 1068.44 266.373 1068.45 266.64L1067.83 266.12C1067.98 265.307 1068.28 264.6 1068.73 264C1069.18 263.387 1069.75 262.913 1070.43 262.58C1071.12 262.233 1071.89 262.06 1072.73 262.06C1073.7 262.06 1074.57 262.273 1075.33 262.7C1076.09 263.113 1076.68 263.693 1077.11 264.44C1077.55 265.187 1077.77 266.053 1077.77 267.04C1077.77 268.013 1077.54 268.887 1077.09 269.66C1076.65 270.433 1076.02 271.04 1075.21 271.48C1074.4 271.907 1073.44 272.12 1072.35 272.12ZM1072.51 270.94C1073.26 270.94 1073.92 270.773 1074.49 270.44C1075.06 270.093 1075.51 269.627 1075.83 269.04C1076.16 268.453 1076.33 267.793 1076.33 267.06C1076.33 266.34 1076.16 265.7 1075.83 265.14C1075.51 264.58 1075.06 264.14 1074.49 263.82C1073.92 263.487 1073.25 263.32 1072.49 263.32C1071.74 263.32 1071.08 263.48 1070.51 263.8C1069.94 264.107 1069.48 264.54 1069.15 265.1C1068.83 265.66 1068.67 266.307 1068.67 267.04C1068.67 267.773 1068.83 268.433 1069.15 269.02C1069.48 269.607 1069.94 270.073 1070.51 270.42C1071.1 270.767 1071.76 270.94 1072.51 270.94ZM1088.91 272.12C1088.04 272.12 1087.23 271.987 1086.49 271.72C1085.75 271.44 1085.13 271.04 1084.63 270.52L1085.47 269.68C1085.92 270.107 1086.43 270.427 1087.01 270.64C1087.58 270.84 1088.19 270.94 1088.85 270.94C1089.67 270.94 1090.41 270.76 1091.05 270.4C1091.7 270.027 1092.21 269.527 1092.59 268.9C1092.96 268.26 1093.15 267.54 1093.15 266.74C1093.15 265.94 1092.96 265.227 1092.59 264.6C1092.21 263.96 1091.7 263.46 1091.05 263.1C1090.41 262.74 1089.67 262.56 1088.85 262.56C1088.19 262.56 1087.58 262.667 1087.01 262.88C1086.43 263.08 1085.92 263.393 1085.47 263.82L1084.63 263C1085.13 262.467 1085.75 262.067 1086.49 261.8C1087.23 261.533 1088.04 261.4 1088.91 261.4C1089.97 261.4 1090.93 261.633 1091.77 262.1C1092.61 262.553 1093.27 263.187 1093.75 264C1094.24 264.8 1094.49 265.713 1094.49 266.74C1094.49 267.767 1094.24 268.687 1093.75 269.5C1093.27 270.313 1092.61 270.953 1091.77 271.42C1090.93 271.887 1089.97 272.12 1088.91 272.12ZM1087.51 267.2V266.12H1093.61V267.2H1087.51ZM1099.08 272V262.36L1099.44 262.74H1095.1V261.5H1104.48V262.74H1100.14L1100.5 262.36V272H1099.08ZM1110.37 272.1C1109.35 272.1 1108.44 271.873 1107.63 271.42C1106.83 270.953 1106.19 270.32 1105.73 269.52C1105.26 268.707 1105.03 267.78 1105.03 266.74C1105.03 265.687 1105.26 264.76 1105.73 263.96C1106.19 263.16 1106.83 262.533 1107.63 262.08C1108.43 261.627 1109.34 261.4 1110.37 261.4C1111.41 261.4 1112.33 261.627 1113.13 262.08C1113.94 262.533 1114.57 263.16 1115.03 263.96C1115.49 264.76 1115.73 265.687 1115.73 266.74C1115.73 267.78 1115.49 268.707 1115.03 269.52C1114.57 270.32 1113.94 270.953 1113.13 271.42C1112.31 271.873 1111.39 272.1 1110.37 272.1ZM1110.37 270.84C1111.13 270.84 1111.8 270.673 1112.39 270.34C1112.97 269.993 1113.43 269.513 1113.77 268.9C1114.11 268.273 1114.29 267.553 1114.29 266.74C1114.29 265.913 1114.11 265.193 1113.77 264.58C1113.43 263.967 1112.97 263.493 1112.39 263.16C1111.8 262.813 1111.13 262.64 1110.39 262.64C1109.64 262.64 1108.97 262.813 1108.39 263.16C1107.8 263.493 1107.33 263.967 1106.99 264.58C1106.64 265.193 1106.47 265.913 1106.47 266.74C1106.47 267.553 1106.64 268.273 1106.99 268.9C1107.33 269.513 1107.8 269.993 1108.39 270.34C1108.97 270.673 1109.63 270.84 1110.37 270.84ZM1118.76 272V261.5H1120.2L1124.96 269.56H1124.36L1129.2 261.5H1130.52V272H1129.22V263.12L1129.48 263.24L1124.96 270.72H1124.32L1119.76 263.16L1120.06 263.1V272H1118.76ZM1133.66 274.92L1134.54 271.22L1134.7 272.08C1134.4 272.08 1134.14 271.98 1133.92 271.78C1133.72 271.58 1133.62 271.32 1133.62 271C1133.62 270.68 1133.72 270.42 1133.92 270.22C1134.14 270.02 1134.39 269.92 1134.68 269.92C1134.99 269.92 1135.24 270.027 1135.42 270.24C1135.62 270.453 1135.72 270.707 1135.72 271C1135.72 271.107 1135.72 271.213 1135.7 271.32C1135.69 271.427 1135.66 271.547 1135.62 271.68C1135.58 271.813 1135.53 271.973 1135.46 272.16L1134.62 274.92H1133.66ZM1144.04 272V261.5H1145.46V266.14H1152.08V261.5H1153.5V272H1152.08V267.36H1145.46V272H1144.04ZM1164.05 272V269.68L1163.99 269.3V265.42C1163.99 264.527 1163.74 263.84 1163.23 263.36C1162.74 262.88 1162 262.64 1161.01 262.64C1160.33 262.64 1159.69 262.753 1159.07 262.98C1158.46 263.207 1157.94 263.507 1157.51 263.88L1156.87 262.82C1157.41 262.367 1158.05 262.02 1158.79 261.78C1159.54 261.527 1160.33 261.4 1161.15 261.4C1162.51 261.4 1163.56 261.74 1164.29 262.42C1165.04 263.087 1165.41 264.107 1165.41 265.48V272H1164.05ZM1160.43 272.1C1159.65 272.1 1158.96 271.973 1158.37 271.72C1157.8 271.453 1157.36 271.093 1157.05 270.64C1156.75 270.173 1156.59 269.64 1156.59 269.04C1156.59 268.493 1156.72 268 1156.97 267.56C1157.24 267.107 1157.67 266.747 1158.25 266.48C1158.85 266.2 1159.65 266.06 1160.65 266.06H1164.27V267.12H1160.69C1159.68 267.12 1158.97 267.3 1158.57 267.66C1158.19 268.02 1157.99 268.467 1157.99 269C1157.99 269.6 1158.23 270.08 1158.69 270.44C1159.16 270.8 1159.81 270.98 1160.65 270.98C1161.45 270.98 1162.14 270.8 1162.71 270.44C1163.3 270.067 1163.73 269.533 1163.99 268.84L1164.31 269.82C1164.05 270.513 1163.58 271.067 1162.91 271.48C1162.26 271.893 1161.43 272.1 1160.43 272.1ZM1169.19 272V261.5H1170.63L1175.39 269.56H1174.79L1179.63 261.5H1180.95V272H1179.65V263.12L1179.91 263.24L1175.39 270.72H1174.75L1170.19 263.16L1170.49 263.1V272H1169.19ZM1190.23 272V261.5H1191.65V269.84L1198.67 261.5H1199.93V272H1198.51V263.64L1191.51 272H1190.23ZM1204 272V261.5H1205.42V266.14H1212.04V261.5H1213.46V272H1212.04V267.36H1205.42V272H1204ZM1219.49 272V262.36L1219.85 262.74H1215.51V261.5H1224.89V262.74H1220.55L1220.91 262.36V272H1219.49ZM1230.96 272.1C1229.86 272.1 1228.9 271.873 1228.08 271.42C1227.25 270.953 1226.6 270.32 1226.14 269.52C1225.67 268.707 1225.44 267.78 1225.44 266.74C1225.44 265.7 1225.66 264.78 1226.1 263.98C1226.55 263.18 1227.16 262.553 1227.94 262.1C1228.72 261.633 1229.6 261.4 1230.58 261.4C1231.56 261.4 1232.44 261.627 1233.2 262.08C1233.97 262.52 1234.58 263.147 1235.02 263.96C1235.46 264.76 1235.68 265.687 1235.68 266.74C1235.68 266.807 1235.67 266.88 1235.66 266.96C1235.66 267.027 1235.66 267.1 1235.66 267.18H1226.52V266.12H1234.9L1234.34 266.54C1234.34 265.78 1234.17 265.107 1233.84 264.52C1233.52 263.92 1233.08 263.453 1232.52 263.12C1231.96 262.787 1231.31 262.62 1230.58 262.62C1229.86 262.62 1229.21 262.787 1228.64 263.12C1228.06 263.453 1227.62 263.92 1227.3 264.52C1226.98 265.12 1226.82 265.807 1226.82 266.58V266.8C1226.82 267.6 1226.99 268.307 1227.34 268.92C1227.7 269.52 1228.19 269.993 1228.82 270.34C1229.46 270.673 1230.18 270.84 1231 270.84C1231.64 270.84 1232.23 270.727 1232.78 270.5C1233.34 270.273 1233.82 269.927 1234.22 269.46L1235.02 270.38C1234.55 270.94 1233.96 271.367 1233.26 271.66C1232.56 271.953 1231.8 272.1 1230.96 272.1ZM1244.24 272.1C1243.33 272.1 1242.51 271.893 1241.78 271.48C1241.05 271.053 1240.46 270.447 1240.02 269.66C1239.59 268.86 1239.38 267.887 1239.38 266.74C1239.38 265.593 1239.59 264.627 1240.02 263.84C1240.45 263.04 1241.03 262.433 1241.76 262.02C1242.49 261.607 1243.32 261.4 1244.24 261.4C1245.24 261.4 1246.13 261.627 1246.92 262.08C1247.72 262.52 1248.35 263.147 1248.8 263.96C1249.25 264.76 1249.48 265.687 1249.48 266.74C1249.48 267.807 1249.25 268.74 1248.8 269.54C1248.35 270.34 1247.72 270.967 1246.92 271.42C1246.13 271.873 1245.24 272.1 1244.24 272.1ZM1238.82 275.88V261.5H1240.18V264.66L1240.04 266.76L1240.24 268.88V275.88H1238.82ZM1244.14 270.84C1244.89 270.84 1245.55 270.673 1246.14 270.34C1246.73 269.993 1247.19 269.513 1247.54 268.9C1247.89 268.273 1248.06 267.553 1248.06 266.74C1248.06 265.927 1247.89 265.213 1247.54 264.6C1247.19 263.987 1246.73 263.507 1246.14 263.16C1245.55 262.813 1244.89 262.64 1244.14 262.64C1243.39 262.64 1242.72 262.813 1242.12 263.16C1241.53 263.507 1241.07 263.987 1240.72 264.6C1240.39 265.213 1240.22 265.927 1240.22 266.74C1240.22 267.553 1240.39 268.273 1240.72 268.9C1241.07 269.513 1241.53 269.993 1242.12 270.34C1242.72 270.673 1243.39 270.84 1244.14 270.84ZM1257.03 272.1C1255.94 272.1 1254.98 271.873 1254.15 271.42C1253.33 270.953 1252.68 270.32 1252.21 269.52C1251.75 268.707 1251.51 267.78 1251.51 266.74C1251.51 265.7 1251.73 264.78 1252.17 263.98C1252.63 263.18 1253.24 262.553 1254.01 262.1C1254.8 261.633 1255.68 261.4 1256.65 261.4C1257.64 261.4 1258.51 261.627 1259.27 262.08C1260.05 262.52 1260.65 263.147 1261.09 263.96C1261.53 264.76 1261.75 265.687 1261.75 266.74C1261.75 266.807 1261.75 266.88 1261.73 266.96C1261.73 267.027 1261.73 267.1 1261.73 267.18H1252.59V266.12H1260.97L1260.41 266.54C1260.41 265.78 1260.25 265.107 1259.91 264.52C1259.59 263.92 1259.15 263.453 1258.59 263.12C1258.03 262.787 1257.39 262.62 1256.65 262.62C1255.93 262.62 1255.29 262.787 1254.71 263.12C1254.14 263.453 1253.69 263.92 1253.37 264.52C1253.05 265.12 1252.89 265.807 1252.89 266.58V266.8C1252.89 267.6 1253.07 268.307 1253.41 268.92C1253.77 269.52 1254.27 269.993 1254.89 270.34C1255.53 270.673 1256.26 270.84 1257.07 270.84C1257.71 270.84 1258.31 270.727 1258.85 270.5C1259.41 270.273 1259.89 269.927 1260.29 269.46L1261.09 270.38C1260.63 270.94 1260.04 271.367 1259.33 271.66C1258.64 271.953 1257.87 272.1 1257.03 272.1ZM1269.3 272.1C1268.26 272.1 1267.32 271.873 1266.5 271.42C1265.68 270.953 1265.04 270.32 1264.58 269.52C1264.11 268.707 1263.88 267.78 1263.88 266.74C1263.88 265.687 1264.11 264.76 1264.58 263.96C1265.04 263.16 1265.68 262.533 1266.5 262.08C1267.32 261.627 1268.26 261.4 1269.3 261.4C1270.19 261.4 1271 261.573 1271.72 261.92C1272.44 262.267 1273 262.787 1273.42 263.48L1272.36 264.2C1272 263.667 1271.55 263.273 1271.02 263.02C1270.48 262.767 1269.9 262.64 1269.28 262.64C1268.53 262.64 1267.86 262.813 1267.26 263.16C1266.66 263.493 1266.18 263.967 1265.84 264.58C1265.49 265.193 1265.32 265.913 1265.32 266.74C1265.32 267.567 1265.49 268.287 1265.84 268.9C1266.18 269.513 1266.66 269.993 1267.26 270.34C1267.86 270.673 1268.53 270.84 1269.28 270.84C1269.9 270.84 1270.48 270.713 1271.02 270.46C1271.55 270.207 1272 269.82 1272.36 269.3L1273.42 270.02C1273 270.7 1272.44 271.22 1271.72 271.58C1271 271.927 1270.19 272.1 1269.3 272.1ZM1276.16 272V261.5H1277.58V266.14H1284.2V261.5H1285.62V272H1284.2V267.36H1277.58V272H1276.16ZM1293.98 272.1C1292.97 272.1 1292.05 271.873 1291.24 271.42C1290.44 270.953 1289.81 270.32 1289.34 269.52C1288.87 268.707 1288.64 267.78 1288.64 266.74C1288.64 265.687 1288.87 264.76 1289.34 263.96C1289.81 263.16 1290.44 262.533 1291.24 262.08C1292.04 261.627 1292.95 261.4 1293.98 261.4C1295.02 261.4 1295.94 261.627 1296.74 262.08C1297.55 262.533 1298.19 263.16 1298.64 263.96C1299.11 264.76 1299.34 265.687 1299.34 266.74C1299.34 267.78 1299.11 268.707 1298.64 269.52C1298.19 270.32 1297.55 270.953 1296.74 271.42C1295.93 271.873 1295.01 272.1 1293.98 272.1ZM1293.98 270.84C1294.74 270.84 1295.41 270.673 1296 270.34C1296.59 269.993 1297.05 269.513 1297.38 268.9C1297.73 268.273 1297.9 267.553 1297.9 266.74C1297.9 265.913 1297.73 265.193 1297.38 264.58C1297.05 263.967 1296.59 263.493 1296 263.16C1295.41 262.813 1294.75 262.64 1294 262.64C1293.25 262.64 1292.59 262.813 1292 263.16C1291.41 263.493 1290.95 263.967 1290.6 264.58C1290.25 265.193 1290.08 265.913 1290.08 266.74C1290.08 267.553 1290.25 268.273 1290.6 268.9C1290.95 269.513 1291.41 269.993 1292 270.34C1292.59 270.673 1293.25 270.84 1293.98 270.84ZM756.385 300.1C755.345 300.1 754.412 299.873 753.585 299.42C752.772 298.953 752.132 298.32 751.665 297.52C751.198 296.707 750.965 295.78 750.965 294.74C750.965 293.687 751.198 292.76 751.665 291.96C752.132 291.16 752.772 290.533 753.585 290.08C754.412 289.627 755.345 289.4 756.385 289.4C757.278 289.4 758.085 289.573 758.805 289.92C759.525 290.267 760.092 290.787 760.505 291.48L759.445 292.2C759.085 291.667 758.638 291.273 758.105 291.02C757.572 290.767 756.992 290.64 756.365 290.64C755.618 290.64 754.945 290.813 754.345 291.16C753.745 291.493 753.272 291.967 752.925 292.58C752.578 293.193 752.405 293.913 752.405 294.74C752.405 295.567 752.578 296.287 752.925 296.9C753.272 297.513 753.745 297.993 754.345 298.34C754.945 298.673 755.618 298.84 756.365 298.84C756.992 298.84 757.572 298.713 758.105 298.46C758.638 298.207 759.085 297.82 759.445 297.3L760.505 298.02C760.092 298.7 759.525 299.22 758.805 299.58C758.085 299.927 757.278 300.1 756.385 300.1ZM762.003 300.12C761.843 300.12 761.676 300.107 761.503 300.08C761.343 300.053 761.169 300.02 760.983 299.98L761.083 298.76C761.176 298.773 761.263 298.793 761.343 298.82C761.436 298.833 761.516 298.84 761.583 298.84C762.009 298.84 762.349 298.68 762.603 298.36C762.869 298.04 763.069 297.613 763.203 297.08C763.336 296.547 763.429 295.947 763.483 295.28C763.536 294.6 763.583 293.92 763.623 293.24L763.803 289.5H771.503V300H770.083V290.32L770.443 290.74H764.723L765.063 290.3L764.903 293.34C764.863 294.247 764.789 295.113 764.683 295.94C764.589 296.767 764.436 297.493 764.223 298.12C764.023 298.747 763.743 299.24 763.383 299.6C763.023 299.947 762.563 300.12 762.003 300.12ZM780.04 300.1C778.946 300.1 777.986 299.873 777.16 299.42C776.333 298.953 775.686 298.32 775.22 297.52C774.753 296.707 774.52 295.78 774.52 294.74C774.52 293.7 774.74 292.78 775.18 291.98C775.633 291.18 776.246 290.553 777.02 290.1C777.806 289.633 778.686 289.4 779.66 289.4C780.646 289.4 781.52 289.627 782.28 290.08C783.053 290.52 783.66 291.147 784.1 291.96C784.54 292.76 784.76 293.687 784.76 294.74C784.76 294.807 784.753 294.88 784.74 294.96C784.74 295.027 784.74 295.1 784.74 295.18H775.6V294.12H783.98L783.42 294.54C783.42 293.78 783.253 293.107 782.92 292.52C782.6 291.92 782.16 291.453 781.6 291.12C781.04 290.787 780.393 290.62 779.66 290.62C778.94 290.62 778.293 290.787 777.72 291.12C777.146 291.453 776.7 291.92 776.38 292.52C776.06 293.12 775.9 293.807 775.9 294.58V294.8C775.9 295.6 776.073 296.307 776.42 296.92C776.78 297.52 777.273 297.993 777.9 298.34C778.54 298.673 779.266 298.84 780.08 298.84C780.72 298.84 781.313 298.727 781.86 298.5C782.42 298.273 782.9 297.927 783.3 297.46L784.1 298.38C783.633 298.94 783.046 299.367 782.34 299.66C781.646 299.953 780.88 300.1 780.04 300.1ZM787.708 299.02L786.288 298.76C786.701 298.773 787.041 298.627 787.308 298.32C787.575 298 787.781 297.567 787.928 297.02C788.075 296.473 788.181 295.853 788.248 295.16C788.315 294.453 788.368 293.733 788.408 293L788.548 289.5H796.308V299.32H794.888V290.74H789.828L789.708 293.08C789.681 293.787 789.635 294.48 789.568 295.16C789.515 295.84 789.415 296.467 789.268 297.04C789.135 297.6 788.941 298.06 788.688 298.42C788.435 298.767 788.108 298.967 787.708 299.02ZM785.848 302.54V298.76H797.948V302.54H796.608V300H787.188V302.54H785.848ZM800.715 300V289.5H802.135V297.84L809.155 289.5H810.415V300H808.995V291.64L801.995 300H800.715ZM816.485 300V290.36L816.845 290.74H812.505V289.5H821.885V290.74H817.545L817.905 290.36V300H816.485ZM828.178 300.02L823.938 300V289.5H825.358V293.16L828.458 293.2C829.778 293.213 830.778 293.507 831.458 294.08C832.151 294.653 832.498 295.48 832.498 296.56C832.498 297.68 832.125 298.54 831.378 299.14C830.645 299.74 829.578 300.033 828.178 300.02ZM828.098 298.94C829.071 298.953 829.805 298.76 830.298 298.36C830.805 297.947 831.058 297.347 831.058 296.56C831.058 295.773 830.811 295.2 830.318 294.84C829.825 294.467 829.085 294.273 828.098 294.26L825.358 294.22V298.9L828.098 298.94ZM843.262 300.12C842.502 300.12 841.749 300.013 841.002 299.8C840.255 299.587 839.595 299.26 839.022 298.82L839.482 297.76C839.989 298.133 840.575 298.42 841.242 298.62C841.909 298.807 842.569 298.9 843.222 298.9C843.875 298.887 844.442 298.793 844.922 298.62C845.402 298.447 845.775 298.207 846.042 297.9C846.309 297.593 846.442 297.247 846.442 296.86C846.442 296.3 846.189 295.867 845.682 295.56C845.175 295.24 844.482 295.08 843.602 295.08H841.502V294.04H843.502C844.022 294.04 844.482 293.973 844.882 293.84C845.282 293.707 845.589 293.513 845.802 293.26C846.029 293.007 846.142 292.707 846.142 292.36C846.142 291.987 846.009 291.667 845.742 291.4C845.489 291.133 845.135 290.933 844.682 290.8C844.229 290.667 843.715 290.6 843.142 290.6C842.622 290.613 842.082 290.693 841.522 290.84C840.962 290.973 840.409 291.18 839.862 291.46L839.462 290.36C840.075 290.04 840.682 289.8 841.282 289.64C841.895 289.467 842.509 289.38 843.122 289.38C843.962 289.353 844.715 289.453 845.382 289.68C846.062 289.907 846.602 290.233 847.002 290.66C847.402 291.073 847.602 291.573 847.602 292.16C847.602 292.68 847.442 293.133 847.122 293.52C846.802 293.907 846.375 294.207 845.842 294.42C845.309 294.633 844.702 294.74 844.022 294.74L844.082 294.36C845.282 294.36 846.215 294.593 846.882 295.06C847.562 295.527 847.902 296.16 847.902 296.96C847.902 297.587 847.695 298.14 847.282 298.62C846.869 299.087 846.309 299.453 845.602 299.72C844.909 299.987 844.129 300.12 843.262 300.12ZM857.645 300V297.68L857.585 297.3V293.42C857.585 292.527 857.332 291.84 856.825 291.36C856.332 290.88 855.592 290.64 854.605 290.64C853.925 290.64 853.279 290.753 852.665 290.98C852.052 291.207 851.532 291.507 851.105 291.88L850.465 290.82C850.999 290.367 851.639 290.02 852.385 289.78C853.132 289.527 853.919 289.4 854.745 289.4C856.105 289.4 857.152 289.74 857.885 290.42C858.632 291.087 859.005 292.107 859.005 293.48V300H857.645ZM854.025 300.1C853.239 300.1 852.552 299.973 851.965 299.72C851.392 299.453 850.952 299.093 850.645 298.64C850.339 298.173 850.185 297.64 850.185 297.04C850.185 296.493 850.312 296 850.565 295.56C850.832 295.107 851.259 294.747 851.845 294.48C852.445 294.2 853.245 294.06 854.245 294.06H857.865V295.12H854.285C853.272 295.12 852.565 295.3 852.165 295.66C851.779 296.02 851.585 296.467 851.585 297C851.585 297.6 851.819 298.08 852.285 298.44C852.752 298.8 853.405 298.98 854.245 298.98C855.045 298.98 855.732 298.8 856.305 298.44C856.892 298.067 857.319 297.533 857.585 296.84L857.905 297.82C857.639 298.513 857.172 299.067 856.505 299.48C855.852 299.893 855.025 300.1 854.025 300.1ZM868.02 300V289.5H869.44V297.84L876.46 289.5H877.72V300H876.3V291.64L869.3 300H868.02ZM884.61 300.12C883.85 300.12 883.096 300.013 882.35 299.8C881.603 299.587 880.943 299.26 880.37 298.82L880.83 297.76C881.336 298.133 881.923 298.42 882.59 298.62C883.256 298.807 883.916 298.9 884.57 298.9C885.223 298.887 885.79 298.793 886.27 298.62C886.75 298.447 887.123 298.207 887.39 297.9C887.656 297.593 887.79 297.247 887.79 296.86C887.79 296.3 887.536 295.867 887.03 295.56C886.523 295.24 885.83 295.08 884.95 295.08H882.85V294.04H884.85C885.37 294.04 885.83 293.973 886.23 293.84C886.63 293.707 886.936 293.513 887.15 293.26C887.376 293.007 887.49 292.707 887.49 292.36C887.49 291.987 887.356 291.667 887.09 291.4C886.836 291.133 886.483 290.933 886.03 290.8C885.576 290.667 885.063 290.6 884.49 290.6C883.97 290.613 883.43 290.693 882.87 290.84C882.31 290.973 881.756 291.18 881.21 291.46L880.81 290.36C881.423 290.04 882.03 289.8 882.63 289.64C883.243 289.467 883.856 289.38 884.47 289.38C885.31 289.353 886.063 289.453 886.73 289.68C887.41 289.907 887.95 290.233 888.35 290.66C888.75 291.073 888.95 291.573 888.95 292.16C888.95 292.68 888.79 293.133 888.47 293.52C888.15 293.907 887.723 294.207 887.19 294.42C886.656 294.633 886.05 294.74 885.37 294.74L885.43 294.36C886.63 294.36 887.563 294.593 888.23 295.06C888.91 295.527 889.25 296.16 889.25 296.96C889.25 297.587 889.043 298.14 888.63 298.62C888.216 299.087 887.656 299.453 886.95 299.72C886.256 299.987 885.476 300.12 884.61 300.12ZM892.473 300V289.5H893.913L898.673 297.56H898.073L902.913 289.5H904.233V300H902.933V291.12L903.193 291.24L898.673 298.72H898.033L893.473 291.16L893.773 291.1V300H892.473ZM912.774 300.1C911.681 300.1 910.721 299.873 909.894 299.42C909.067 298.953 908.421 298.32 907.954 297.52C907.487 296.707 907.254 295.78 907.254 294.74C907.254 293.7 907.474 292.78 907.914 291.98C908.367 291.18 908.981 290.553 909.754 290.1C910.541 289.633 911.421 289.4 912.394 289.4C913.381 289.4 914.254 289.627 915.014 290.08C915.787 290.52 916.394 291.147 916.834 291.96C917.274 292.76 917.494 293.687 917.494 294.74C917.494 294.807 917.487 294.88 917.474 294.96C917.474 295.027 917.474 295.1 917.474 295.18H908.334V294.12H916.714L916.154 294.54C916.154 293.78 915.987 293.107 915.654 292.52C915.334 291.92 914.894 291.453 914.334 291.12C913.774 290.787 913.127 290.62 912.394 290.62C911.674 290.62 911.027 290.787 910.454 291.12C909.881 291.453 909.434 291.92 909.114 292.52C908.794 293.12 908.634 293.807 908.634 294.58V294.8C908.634 295.6 908.807 296.307 909.154 296.92C909.514 297.52 910.007 297.993 910.634 298.34C911.274 298.673 912.001 298.84 912.814 298.84C913.454 298.84 914.047 298.727 914.594 298.5C915.154 298.273 915.634 297.927 916.034 297.46L916.834 298.38C916.367 298.94 915.781 299.367 915.074 299.66C914.381 299.953 913.614 300.1 912.774 300.1ZM920.637 300V289.5H922.057V294.14H928.677V289.5H930.097V300H928.677V295.36H922.057V300H920.637ZM938.633 300.1C937.54 300.1 936.58 299.873 935.753 299.42C934.927 298.953 934.28 298.32 933.813 297.52C933.347 296.707 933.113 295.78 933.113 294.74C933.113 293.7 933.333 292.78 933.773 291.98C934.227 291.18 934.84 290.553 935.613 290.1C936.4 289.633 937.28 289.4 938.253 289.4C939.24 289.4 940.113 289.627 940.873 290.08C941.647 290.52 942.253 291.147 942.693 291.96C943.133 292.76 943.353 293.687 943.353 294.74C943.353 294.807 943.347 294.88 943.333 294.96C943.333 295.027 943.333 295.1 943.333 295.18H934.193V294.12H942.573L942.013 294.54C942.013 293.78 941.847 293.107 941.513 292.52C941.193 291.92 940.753 291.453 940.193 291.12C939.633 290.787 938.987 290.62 938.253 290.62C937.533 290.62 936.887 290.787 936.313 291.12C935.74 291.453 935.293 291.92 934.973 292.52C934.653 293.12 934.493 293.807 934.493 294.58V294.8C934.493 295.6 934.667 296.307 935.013 296.92C935.373 297.52 935.867 297.993 936.493 298.34C937.133 298.673 937.86 298.84 938.673 298.84C939.313 298.84 939.907 298.727 940.453 298.5C941.013 298.273 941.493 297.927 941.893 297.46L942.693 298.38C942.227 298.94 941.64 299.367 940.933 299.66C940.24 299.953 939.473 300.1 938.633 300.1ZM946.497 300V289.5H947.917V294.14H954.537V289.5H955.957V300H954.537V295.36H947.917V300H946.497ZM959.993 300V289.5H961.413V297.84L968.433 289.5H969.693V300H968.273V291.64L961.273 300H959.993ZM980.542 300V296.22L980.802 296.52H977.242C975.896 296.52 974.842 296.227 974.082 295.64C973.322 295.053 972.942 294.2 972.942 293.08C972.942 291.88 973.349 290.987 974.162 290.4C974.976 289.8 976.062 289.5 977.422 289.5H981.842V300H980.542ZM972.862 300L975.742 295.96H977.222L974.402 300H972.862ZM980.542 295.8V290.32L980.802 290.74H977.462C976.489 290.74 975.729 290.927 975.182 291.3C974.649 291.673 974.382 292.28 974.382 293.12C974.382 294.68 975.376 295.46 977.362 295.46H980.802L980.542 295.8ZM985.891 300V289.5H987.331L992.091 297.56H991.491L996.331 289.5H997.651V300H996.351V291.12L996.611 291.24L992.091 298.72H991.451L986.891 291.16L987.191 291.1V300H985.891ZM1001.69 300V289.5H1003.11V297.84L1010.13 289.5H1011.39V300H1009.97V291.64L1002.97 300H1001.69ZM1020.7 300V289.5H1025.34C1026.52 289.5 1027.46 289.727 1028.14 290.18C1028.83 290.633 1029.18 291.3 1029.18 292.18C1029.18 293.033 1028.85 293.693 1028.2 294.16C1027.54 294.613 1026.68 294.84 1025.62 294.84L1025.9 294.42C1027.15 294.42 1028.07 294.653 1028.66 295.12C1029.24 295.587 1029.54 296.26 1029.54 297.14C1029.54 298.047 1029.2 298.753 1028.54 299.26C1027.88 299.753 1026.86 300 1025.48 300H1020.7ZM1022.08 298.88H1025.42C1026.31 298.88 1026.98 298.74 1027.44 298.46C1027.9 298.167 1028.14 297.7 1028.14 297.06C1028.14 296.42 1027.93 295.953 1027.52 295.66C1027.1 295.367 1026.45 295.22 1025.56 295.22H1022.08V298.88ZM1022.08 294.16H1025.24C1026.05 294.16 1026.67 294.007 1027.1 293.7C1027.54 293.393 1027.76 292.947 1027.76 292.36C1027.76 291.773 1027.54 291.333 1027.1 291.04C1026.67 290.747 1026.05 290.6 1025.24 290.6H1022.08V294.16ZM1040.1 300V290.36L1040.46 290.74H1036.12V289.5H1045.5V290.74H1041.16L1041.52 290.36V300H1040.1ZM1052.97 300.1C1052.06 300.1 1051.24 299.893 1050.51 299.48C1049.78 299.053 1049.19 298.447 1048.75 297.66C1048.32 296.86 1048.11 295.887 1048.11 294.74C1048.11 293.593 1048.32 292.627 1048.75 291.84C1049.18 291.04 1049.76 290.433 1050.49 290.02C1051.22 289.607 1052.05 289.4 1052.97 289.4C1053.97 289.4 1054.86 289.627 1055.65 290.08C1056.45 290.52 1057.08 291.147 1057.53 291.96C1057.98 292.76 1058.21 293.687 1058.21 294.74C1058.21 295.807 1057.98 296.74 1057.53 297.54C1057.08 298.34 1056.45 298.967 1055.65 299.42C1054.86 299.873 1053.97 300.1 1052.97 300.1ZM1047.55 303.88V289.5H1048.91V292.66L1048.77 294.76L1048.97 296.88V303.88H1047.55ZM1052.87 298.84C1053.62 298.84 1054.28 298.673 1054.87 298.34C1055.46 297.993 1055.92 297.513 1056.27 296.9C1056.62 296.273 1056.79 295.553 1056.79 294.74C1056.79 293.927 1056.62 293.213 1056.27 292.6C1055.92 291.987 1055.46 291.507 1054.87 291.16C1054.28 290.813 1053.62 290.64 1052.87 290.64C1052.12 290.64 1051.45 290.813 1050.85 291.16C1050.26 291.507 1049.8 291.987 1049.45 292.6C1049.12 293.213 1048.95 293.927 1048.95 294.74C1048.95 295.553 1049.12 296.273 1049.45 296.9C1049.8 297.513 1050.26 297.993 1050.85 298.34C1051.45 298.673 1052.12 298.84 1052.87 298.84ZM1065.76 300.1C1064.67 300.1 1063.71 299.873 1062.88 299.42C1062.06 298.953 1061.41 298.32 1060.94 297.52C1060.48 296.707 1060.24 295.78 1060.24 294.74C1060.24 293.7 1060.46 292.78 1060.9 291.98C1061.36 291.18 1061.97 290.553 1062.74 290.1C1063.53 289.633 1064.41 289.4 1065.38 289.4C1066.37 289.4 1067.24 289.627 1068 290.08C1068.78 290.52 1069.38 291.147 1069.82 291.96C1070.26 292.76 1070.48 293.687 1070.48 294.74C1070.48 294.807 1070.48 294.88 1070.46 294.96C1070.46 295.027 1070.46 295.1 1070.46 295.18H1061.32V294.12H1069.7L1069.14 294.54C1069.14 293.78 1068.98 293.107 1068.64 292.52C1068.32 291.92 1067.88 291.453 1067.32 291.12C1066.76 290.787 1066.12 290.62 1065.38 290.62C1064.66 290.62 1064.02 290.787 1063.44 291.12C1062.87 291.453 1062.42 291.92 1062.1 292.52C1061.78 293.12 1061.62 293.807 1061.62 294.58V294.8C1061.62 295.6 1061.8 296.307 1062.14 296.92C1062.5 297.52 1063 297.993 1063.62 298.34C1064.26 298.673 1064.99 298.84 1065.8 298.84C1066.44 298.84 1067.04 298.727 1067.58 298.5C1068.14 298.273 1068.62 297.927 1069.02 297.46L1069.82 298.38C1069.36 298.94 1068.77 299.367 1068.06 299.66C1067.37 299.953 1066.6 300.1 1065.76 300.1ZM1073.63 300V289.5H1075.05V297.84L1082.07 289.5H1083.33V300H1081.91V291.64L1074.91 300H1073.63ZM1078.39 287.98C1077.51 287.98 1076.79 287.76 1076.25 287.32C1075.71 286.867 1075.43 286.22 1075.41 285.38H1076.43C1076.44 285.913 1076.63 286.333 1076.99 286.64C1077.35 286.947 1077.81 287.1 1078.39 287.1C1078.96 287.1 1079.43 286.947 1079.79 286.64C1080.16 286.333 1080.35 285.913 1080.37 285.38H1081.39C1081.37 286.22 1081.09 286.867 1080.55 287.32C1080 287.76 1079.28 287.98 1078.39 287.98ZM1087.42 299.02L1086 298.76C1086.41 298.773 1086.75 298.627 1087.02 298.32C1087.28 298 1087.49 297.567 1087.64 297.02C1087.78 296.473 1087.89 295.853 1087.96 295.16C1088.02 294.453 1088.08 293.733 1088.12 293L1088.26 289.5H1096.02V299.32H1094.6V290.74H1089.54L1089.42 293.08C1089.39 293.787 1089.34 294.48 1089.28 295.16C1089.22 295.84 1089.12 296.467 1088.98 297.04C1088.84 297.6 1088.65 298.06 1088.4 298.42C1088.14 298.767 1087.82 298.967 1087.42 299.02ZM1085.56 302.54V298.76H1097.66V302.54H1096.32V300H1086.9V302.54H1085.56ZM1100.42 300V289.5H1101.84V297.84L1108.86 289.5H1110.12V300H1108.7V291.64L1101.7 300H1100.42ZM1114.19 300V289.5H1115.61V294.14H1122.23V289.5H1123.65V300H1122.23V295.36H1115.61V300H1114.19ZM1127.69 300V289.5H1135.13V290.74H1128.75L1129.11 290.38V300H1127.69ZM1141.19 300.1C1140.1 300.1 1139.14 299.873 1138.31 299.42C1137.49 298.953 1136.84 298.32 1136.37 297.52C1135.91 296.707 1135.67 295.78 1135.67 294.74C1135.67 293.7 1135.89 292.78 1136.33 291.98C1136.79 291.18 1137.4 290.553 1138.17 290.1C1138.96 289.633 1139.84 289.4 1140.81 289.4C1141.8 289.4 1142.67 289.627 1143.43 290.08C1144.21 290.52 1144.81 291.147 1145.25 291.96C1145.69 292.76 1145.91 293.687 1145.91 294.74C1145.91 294.807 1145.91 294.88 1145.89 294.96C1145.89 295.027 1145.89 295.1 1145.89 295.18H1136.75V294.12H1145.13L1144.57 294.54C1144.57 293.78 1144.41 293.107 1144.07 292.52C1143.75 291.92 1143.31 291.453 1142.75 291.12C1142.19 290.787 1141.55 290.62 1140.81 290.62C1140.09 290.62 1139.45 290.787 1138.87 291.12C1138.3 291.453 1137.85 291.92 1137.53 292.52C1137.21 293.12 1137.05 293.807 1137.05 294.58V294.8C1137.05 295.6 1137.23 296.307 1137.57 296.92C1137.93 297.52 1138.43 297.993 1139.05 298.34C1139.69 298.673 1140.42 298.84 1141.23 298.84C1141.87 298.84 1142.47 298.727 1143.01 298.5C1143.57 298.273 1144.05 297.927 1144.45 297.46L1145.25 298.38C1144.79 298.94 1144.2 299.367 1143.49 299.66C1142.8 299.953 1142.03 300.1 1141.19 300.1Z" fill="black"/>
    <rect x="711" y="359" width="498" height="64" rx="16" fill="url(#paint0_linear_3233_516)"/>
    <path d="M855.8 384H858.4V398H855.8V384ZM848.56 398H845.96V384H848.56V398ZM856 392H848.34V389.78H856V392ZM859.947 398L866.247 384H868.807L875.127 398H872.407L866.987 385.38H868.027L862.627 398H859.947ZM862.847 394.76L863.547 392.72H871.107L871.807 394.76H862.847ZM876.694 398V384H889.074V398H886.514V385.56L887.114 386.2H878.654L879.254 385.56V398H876.694ZM892.442 398V384H895.002V393.94L902.522 384H904.942V398H902.382V388.08L894.862 398H892.442ZM914.707 398.2C913.64 398.2 912.647 398.027 911.727 397.68C910.82 397.32 910.027 396.82 909.347 396.18C908.68 395.527 908.16 394.76 907.787 393.88C907.414 393 907.227 392.04 907.227 391C907.227 389.96 907.414 389 907.787 388.12C908.16 387.24 908.687 386.48 909.367 385.84C910.047 385.187 910.84 384.687 911.747 384.34C912.654 383.98 913.647 383.8 914.727 383.8C915.874 383.8 916.92 384 917.867 384.4C918.814 384.787 919.614 385.367 920.267 386.14L918.587 387.72C918.08 387.173 917.514 386.767 916.887 386.5C916.26 386.22 915.58 386.08 914.847 386.08C914.114 386.08 913.44 386.2 912.827 386.44C912.227 386.68 911.7 387.02 911.247 387.46C910.807 387.9 910.46 388.42 910.207 389.02C909.967 389.62 909.847 390.28 909.847 391C909.847 391.72 909.967 392.38 910.207 392.98C910.46 393.58 910.807 394.1 911.247 394.54C911.7 394.98 912.227 395.32 912.827 395.56C913.44 395.8 914.114 395.92 914.847 395.92C915.58 395.92 916.26 395.787 916.887 395.52C917.514 395.24 918.08 394.82 918.587 394.26L920.267 395.86C919.614 396.62 918.814 397.2 917.867 397.6C916.92 398 915.867 398.2 914.707 398.2ZM920.008 398L926.308 384H928.868L935.188 398H932.468L927.048 385.38H928.088L922.688 398H920.008ZM922.908 394.76L923.608 392.72H931.168L931.868 394.76H922.908ZM938.972 398V385.56L939.592 386.2H934.352V384H946.192V386.2H940.952L941.552 385.56V398H938.972ZM954.294 388.74C955.961 388.74 957.248 389.113 958.154 389.86C959.061 390.607 959.514 391.727 959.514 393.22C959.514 394.793 959.014 395.987 958.014 396.8C957.028 397.6 955.648 398 953.874 398H947.854V384H950.414V388.74H954.294ZM953.754 396C954.754 396 955.528 395.767 956.074 395.3C956.634 394.833 956.914 394.153 956.914 393.26C956.914 392.38 956.641 391.74 956.094 391.34C955.548 390.927 954.768 390.72 953.754 390.72H950.414V396H953.754ZM969.257 398V386.2H964.617V384H976.497V386.2H971.857V398H969.257ZM980.249 389.82H987.209V391.96H980.249V389.82ZM980.449 395.82H988.349V398H977.849V384H988.069V386.18H980.449V395.82ZM990.647 398V384H993.247V395.8H1000.57V398H990.647ZM1004.42 389.82H1011.38V391.96H1004.42V389.82ZM1004.62 395.82H1012.52V398H1002.02V384H1012.24V386.18H1004.62V395.82ZM1021.36 398.2C1020.26 398.2 1019.26 398.027 1018.34 397.68C1017.43 397.32 1016.64 396.82 1015.96 396.18C1015.28 395.527 1014.75 394.76 1014.38 393.88C1014 393 1013.82 392.04 1013.82 391C1013.82 389.96 1014 389 1014.38 388.12C1014.75 387.24 1015.28 386.48 1015.96 385.84C1016.65 385.187 1017.46 384.687 1018.38 384.34C1019.3 383.98 1020.3 383.8 1021.4 383.8C1022.58 383.8 1023.65 383.993 1024.6 384.38C1025.56 384.767 1026.36 385.333 1027.02 386.08L1025.38 387.68C1024.83 387.133 1024.24 386.733 1023.6 386.48C1022.97 386.213 1022.28 386.08 1021.52 386.08C1020.78 386.08 1020.1 386.2 1019.48 386.44C1018.85 386.68 1018.31 387.02 1017.86 387.46C1017.4 387.9 1017.05 388.42 1016.8 389.02C1016.56 389.62 1016.44 390.28 1016.44 391C1016.44 391.707 1016.56 392.36 1016.8 392.96C1017.05 393.56 1017.4 394.087 1017.86 394.54C1018.31 394.98 1018.84 395.32 1019.46 395.56C1020.07 395.8 1020.75 395.92 1021.5 395.92C1022.19 395.92 1022.86 395.813 1023.5 395.6C1024.15 395.373 1024.77 395 1025.36 394.48L1026.84 396.42C1026.1 397.007 1025.25 397.453 1024.28 397.76C1023.32 398.053 1022.34 398.2 1021.36 398.2ZM1024.38 396.08V390.84H1026.84V396.42L1024.38 396.08ZM1029.67 398V384H1035.43C1036.67 384 1037.73 384.2 1038.61 384.6C1039.5 385 1040.19 385.573 1040.67 386.32C1041.15 387.067 1041.39 387.953 1041.39 388.98C1041.39 390.007 1041.15 390.893 1040.67 391.64C1040.19 392.373 1039.5 392.94 1038.61 393.34C1037.73 393.727 1036.67 393.92 1035.43 393.92H1031.11L1032.27 392.74V398H1029.67ZM1038.83 398L1035.29 392.92H1038.07L1041.63 398H1038.83ZM1032.27 393.02L1031.11 391.78H1035.31C1036.45 391.78 1037.31 391.533 1037.89 391.04C1038.47 390.547 1038.77 389.86 1038.77 388.98C1038.77 388.087 1038.47 387.4 1037.89 386.92C1037.31 386.44 1036.45 386.2 1035.31 386.2H1031.11L1032.27 384.92V393.02ZM1041.72 398L1048.02 384H1050.58L1056.9 398H1054.18L1048.76 385.38H1049.8L1044.4 398H1041.72ZM1044.62 394.76L1045.32 392.72H1052.88L1053.58 394.76H1044.62ZM1058.08 398V384H1060.22L1066.34 394.22H1065.22L1071.24 384H1073.38L1073.4 398H1070.94L1070.92 387.86H1071.44L1066.32 396.4H1065.16L1059.96 387.86H1060.56V398H1058.08Z" fill="white"/>
    <defs>
        <filter id="filter0_d_3233_516" x="-26" y="0" width="1972" height="554" filterUnits="userSpaceOnUse" color-interpolation-filters="sRGB">
            <feFlood flood-opacity="0" result="BackgroundImageFix"/>
            <feColorMatrix in="SourceAlpha" type="matrix" values="0 0 0 0 0 0 0 0 0 0 0 0 0 0 0 0 0 0 127 0" result="hardAlpha"/>
            <feOffset/>
            <feGaussianBlur stdDeviation="13"/>
            <feComposite in2="hardAlpha" operator="out"/>
            <feColorMatrix type="matrix" values="0 0 0 0 0 0 0 0 0 0 0 0 0 0 0 0 0 0 0.1 0"/>
            <feBlend mode="normal" in2="BackgroundImageFix" result="effect1_dropShadow_3233_516"/>
            <feBlend mode="normal" in="SourceGraphic" in2="effect1_dropShadow_3233_516" result="shape"/>
        </filter>
        <linearGradient id="paint0_linear_3233_516" x1="837.194" y1="444" x2="1352.99" y2="147.011" gradientUnits="userSpaceOnUse">
            <stop stop-color="#004DFF"/>
            <stop offset="1" stop-color="#A3BFFF"/>
        </linearGradient>
    </defs>
</svg>
