<svg width="48" height="52" viewBox="0 0 48 52" fill="none" xmlns="http://www.w3.org/2000/svg">
<path d="M35.5737 30.6182C35.7826 30.107 36.3662 29.8615 36.8774 30.0703C37.3883 30.2793 37.6337 30.863 37.4253 31.374C36.4092 33.8616 34.7083 36.0167 32.5181 37.5938C30.3278 39.1707 27.7346 40.1073 25.0347 40.2988C22.3348 40.4903 19.6342 39.9281 17.2397 38.6768C15.7105 37.8775 14.3454 36.8164 13.2026 35.5508V41.002C13.2026 41.5542 12.7549 42.002 12.2026 42.002C11.6506 42.0017 11.2026 41.5541 11.2026 41.002V32.668C11.2028 32.116 11.6507 31.6682 12.2026 31.668H20.6284C21.1804 31.6682 21.6283 32.1159 21.6284 32.668C21.6284 33.2201 21.1805 33.6678 20.6284 33.668H14.2251C15.2938 34.9988 16.6333 36.1035 18.1655 36.9043C20.2308 37.9836 22.562 38.469 24.8931 38.3037C27.2241 38.1384 29.4613 37.3298 31.3491 35.9707C33.2368 34.6115 34.7003 32.7565 35.5737 30.6182ZM35.7935 10C36.3456 10.0002 36.7935 10.4478 36.7935 11V19.334C36.7933 19.886 36.3455 20.3338 35.7935 20.334H27.3677C26.8155 20.3339 26.3678 19.8861 26.3677 19.334C26.3677 18.7818 26.8155 18.3341 27.3677 18.334H33.7749C32.7059 17.003 31.3659 15.8986 29.8335 15.0977C27.7682 14.0184 25.4371 13.533 23.106 13.6982C20.7749 13.8636 18.5387 14.6731 16.6509 16.0322C14.7631 17.3914 13.2997 19.2464 12.4263 21.3848C12.2172 21.8955 11.6336 22.1402 11.1226 21.9316C10.6114 21.7228 10.3661 21.1391 10.5747 20.6279C11.5908 18.1403 13.2917 15.9862 15.4819 14.4092C17.6723 12.8322 20.2653 11.8955 22.9653 11.7041C25.6652 11.5127 28.3658 12.0738 30.7603 13.3252C32.2882 14.1237 33.6516 15.1838 34.7935 16.4482V11C34.7935 10.4478 35.2412 10.0001 35.7935 10Z" fill="#004DFF"/>
</svg>
