<svg xmlns="http://www.w3.org/2000/svg" width="217" height="22" viewBox="0 0 217 22" fill="none">
    <path d="M12.4679 22C9.98368 22 7.79829 21.5405 5.91176 20.6215C4.04391 19.7025 2.58698 18.4177 1.54098 16.7673C0.51366 15.1168 0 13.1944 0 11C0 8.80563 0.51366 6.88321 1.54098 5.23274C2.58698 3.58227 4.04391 2.29753 5.91176 1.37852C7.79829 0.459506 9.98368 0 12.4679 0C14.9709 0 17.1562 0.459506 19.0241 1.37852C20.892 2.29753 22.3489 3.58227 23.3949 5.23274C24.4409 6.88321 24.9639 8.80563 24.9639 11C24.9639 13.1944 24.4409 15.1168 23.3949 16.7673C22.3489 18.4177 20.892 19.7025 19.0241 20.6215C17.1562 21.5405 14.9709 22 12.4679 22ZM12.4679 16.7954C13.8315 16.7954 15.0082 16.561 15.9982 16.0921C16.9881 15.6232 17.7446 14.9574 18.2676 14.0946C18.8093 13.2319 19.0801 12.2003 19.0801 11C19.0801 9.79966 18.8093 8.76812 18.2676 7.90537C17.7446 7.04263 16.9881 6.37681 15.9982 5.90793C15.0082 5.43905 13.8315 5.2046 12.4679 5.2046C11.1231 5.2046 9.95567 5.43905 8.9657 5.90793C7.97574 6.37681 7.20992 7.04263 6.66824 7.90537C6.12656 8.76812 5.85572 9.79966 5.85572 11C5.85572 12.2003 6.12656 13.2319 6.66824 14.0946C7.20992 14.9574 7.97574 15.6232 8.9657 16.0921C9.95567 16.561 11.1231 16.7954 12.4679 16.7954Z" fill="black"/>
    <path d="M26.9488 8.04604C27.0608 6.39557 27.6025 4.97016 28.5738 3.76982C29.5451 2.55072 30.8339 1.62234 32.4403 0.984655C34.0653 0.328218 35.8958 0 37.9318 0C39.8743 0 41.5647 0.300085 43.003 0.900256C44.4599 1.48167 45.59 2.29753 46.3931 3.34783C47.1963 4.39812 47.5979 5.61722 47.5979 7.00512C47.5979 8.07417 47.3084 9.07758 46.7293 10.0153C46.1503 10.9344 45.2444 11.844 44.0116 12.7442C42.7788 13.6257 41.1631 14.5541 39.1645 15.5294L33.3929 18.4271L33.1687 16.9361H48.1863V21.5499H27.3971V17.4987L36.4188 12.4067C37.8197 11.6002 38.903 10.925 39.6689 10.3811C40.4534 9.81841 41.0044 9.30264 41.3219 8.83376C41.6581 8.36488 41.8262 7.86786 41.8262 7.34271C41.8262 6.7613 41.6675 6.26428 41.3499 5.85166C41.0511 5.42029 40.5934 5.08269 39.9771 4.83887C39.3607 4.59505 38.6042 4.47315 37.7076 4.47315C36.5869 4.47315 35.6716 4.64194 34.9619 4.97954C34.2521 5.29838 33.7197 5.72975 33.3648 6.27366C33.01 6.79881 32.7952 7.3896 32.7204 8.04604H26.9488Z" fill="black"/>
    <path d="M64.0096 3.01023H69.8373V21.5499H64.0096V3.01023ZM55.9965 0.450127H77.8504V5.6266H55.9965V0.450127Z" fill="black"/>
    <path d="M84.3606 9.67775H92.0094C92.9434 9.67775 93.6718 9.46206 94.1948 9.03069C94.7178 8.59932 94.9793 7.99915 94.9793 7.23018C94.9793 6.44246 94.7178 5.84229 94.1948 5.42967C93.6718 4.9983 92.9434 4.78261 92.0094 4.78261H83.548L86.1537 1.99744V21.5499H80.354V0.450127H92.8219C94.4283 0.450127 95.8292 0.740835 97.0246 1.32225C98.22 1.88491 99.154 2.67263 99.8264 3.68542C100.499 4.67945 100.835 5.86104 100.835 7.23018C100.835 8.56181 100.499 9.73402 99.8264 10.7468C99.154 11.7596 98.22 12.5473 97.0246 13.11C95.8292 13.6726 94.4283 13.954 92.8219 13.954H84.3606V9.67775ZM87.4986 11.6752H94.0267L101.564 21.5499H94.8392L87.4986 11.6752Z" fill="black"/>
    <path d="M107.866 17.4987V12.8005H122.351V17.4987H107.866ZM119.045 0.450127L128.599 21.5499H122.407L114.394 2.92583H116.075L108.034 21.5499H101.842L111.396 0.450127H119.045Z" fill="black"/>
    <path d="M141.068 0.450127C143.552 0.450127 145.728 0.890878 147.596 1.77238C149.482 2.63512 150.939 3.8636 151.967 5.4578C153.013 7.03325 153.536 8.88065 153.536 11C153.536 13.1194 153.013 14.9761 151.967 16.5703C150.939 18.1458 149.482 19.3743 147.596 20.2558C145.728 21.1185 143.552 21.5499 141.068 21.5499H130.589V0.450127H141.068ZM136.361 19.1023L133.587 16.3734H141.516C142.768 16.3734 143.851 16.1577 144.766 15.7263C145.7 15.2762 146.419 14.6479 146.923 13.8414C147.428 13.035 147.68 12.0878 147.68 11C147.68 9.89344 147.428 8.94629 146.923 8.15857C146.419 7.35209 145.7 6.73316 144.766 6.30179C143.851 5.85166 142.768 5.6266 141.516 5.6266H133.587L136.361 2.8977V19.1023Z" fill="black"/>
    <path d="M156.527 0.450127H162.327V21.5499H156.527V0.450127Z" fill="black"/>
    <path d="M185.713 17.4706L183.92 17.8363V0.450127H189.552V21.5499H182.239L170.107 4.19182L171.872 3.82609V21.5499H166.241V0.450127H173.749L185.713 17.4706Z" fill="black"/>
    <path d="M214.983 12.4067C214.927 13.682 214.665 14.9011 214.198 16.0639C213.75 17.208 213.087 18.2302 212.209 19.1304C211.35 20.0307 210.266 20.734 208.959 21.2404C207.67 21.7468 206.166 22 204.448 22C202.804 22 201.263 21.7656 199.825 21.2967C198.387 20.809 197.117 20.0963 196.015 19.1586C194.931 18.2208 194.081 17.0674 193.465 15.6982C192.867 14.3291 192.568 12.763 192.568 11C192.568 9.237 192.877 7.67093 193.493 6.30179C194.109 4.93265 194.969 3.7792 196.071 2.84143C197.191 1.90367 198.48 1.20034 199.937 0.731458C201.413 0.243819 203.019 0 204.756 0C207.072 0 209.071 0.356351 210.752 1.06905C212.433 1.78176 213.787 2.75703 214.815 3.99489C215.842 5.23274 216.505 6.66752 216.804 8.29923H210.948C210.761 7.58653 210.378 6.97698 209.799 6.47059C209.239 5.94544 208.529 5.55158 207.67 5.289C206.83 5.00767 205.868 4.86701 204.784 4.86701C203.477 4.86701 202.347 5.10145 201.394 5.57033C200.441 6.02046 199.704 6.70503 199.181 7.62404C198.658 8.5243 198.396 9.64962 198.396 11C198.396 12.3691 198.676 13.5226 199.237 14.4604C199.797 15.3981 200.591 16.1014 201.618 16.5703C202.664 17.0392 203.888 17.2737 205.289 17.2737C206.652 17.2737 207.857 17.0861 208.903 16.711C209.949 16.3171 210.78 15.7451 211.396 14.9949C212.032 14.2447 212.396 13.3444 212.489 12.2941L214.983 12.4067ZM205.849 14.7417V10.6343H217V21.5499H212.881L212.069 13.1944L213.162 14.7417H205.849Z" fill="black"/>
</svg>